<svg width="348" height="31" viewBox="0 0 348 31" fill="none" xmlns="http://www.w3.org/2000/svg">
<path d="M243.144 17.9283C242.485 17.6984 241.856 17.4564 241.107 17.1901C240.688 17.2627 240.179 17.3474 239.699 17.4321C239.46 17.4806 239.01 17.5774 238.95 17.5411C237.962 17.0691 236.674 17.5895 235.536 17.3716C235.056 17.2748 234.277 17.42 233.618 17.4443C232.45 17.5048 231.342 17.7105 230.084 17.4685C227.208 16.8997 224.092 17.0812 221.037 17.0812C219.419 17.0812 217.772 17.1417 216.244 17.0086C215.166 16.9239 214.417 16.9965 213.848 17.2264C212.41 16.9481 211.122 16.6939 209.744 16.4277C209.414 16.5971 209.115 16.7423 208.755 16.936C208.546 16.8633 208.336 16.8149 208.186 16.7302C207.198 16.1977 207.168 16.1856 205.7 16.4277C205.131 16.5245 204.561 16.6455 203.992 16.6939C203.693 16.7181 203.303 16.6092 202.944 16.5487C203.243 16.4761 203.543 16.4035 203.843 16.3188C203.723 16.2703 203.603 16.234 203.513 16.1856C203.333 16.3067 203.184 16.4277 203.004 16.5487C202.135 16.3672 201.416 16.2219 200.398 16.5366C199.739 16.7423 198.63 16.7181 197.702 16.8028C196.234 16.585 194.676 16.3188 193.059 16.1251C192.459 16.0525 191.74 16.1251 191.081 16.1735C190.333 16.234 189.644 16.3551 188.925 16.4156C188.056 16.4882 187.906 16.234 187.936 15.9678C187.367 15.9678 186.828 16.0041 186.289 15.9557C185.3 15.871 184.461 15.9436 183.533 16.113C181.496 16.4882 180.058 16.4156 178.53 16.0646C177.182 16.113 176.283 16.1614 175.415 16.1614C173.677 16.1735 171.97 16.1614 170.232 16.1614C168.795 16.1614 167.387 16.1735 165.949 16.1493C165.679 16.1493 165.38 16.0162 165.17 15.9315C164.091 15.4595 162.654 15.4232 161.216 15.399C160.976 15.399 160.736 15.4716 160.467 15.5079C159.868 15.5926 159.299 15.6894 158.46 15.8105C158.699 15.5563 158.789 15.4353 158.999 15.2175C156.962 15.2538 155.045 15.2901 153.068 15.3264C153.068 15.4111 153.038 15.5805 152.978 15.8226C151.72 15.5684 150.851 14.9633 149.473 15.2417C148.455 15.4595 146.837 15.0601 146.388 15.9073C145.249 15.1812 143.871 15.048 142.164 15.2417C141.056 15.3627 139.887 15.399 138.629 15.4837C138.42 15.3748 138.18 15.2296 137.94 15.0843C137.191 15.2417 136.562 15.4232 135.873 15.52C134.885 15.6652 133.986 15.7258 132.968 15.4111C132.339 15.2175 131.32 15.2417 130.182 15.157C130.182 15.157 129.972 15.048 129.822 14.927C129.643 14.806 129.523 14.685 129.283 14.5034C129.043 14.6003 128.804 14.6487 128.684 14.7213C128.025 15.1449 127.306 15.2901 125.958 15.1449C124.37 14.9754 122.693 14.7818 120.985 14.927C120.626 14.9512 120.237 14.9754 119.937 15.048C118.679 15.3869 118.709 15.399 117.99 14.8302C117.271 14.8907 116.552 14.9875 115.803 15.0238C114.156 15.0964 112.448 14.9512 110.95 15.3385C110.89 15.3506 110.801 15.3627 110.771 15.3627C108.015 14.8181 104.929 15.3627 102.113 14.9875C101.424 14.8907 100.586 14.9754 99.3875 14.9754C99.3875 14.9754 99.028 14.8544 98.6985 14.7334C98.5487 14.7576 98.339 14.7576 98.3091 14.7939C97.68 15.2901 96.6016 15.2538 95.4633 15.1933C94.4448 15.1328 93.4263 15.0964 92.4078 15.0843C90.7003 15.0601 89.0228 15.0722 87.3154 15.048C86.3568 15.0359 86.3568 15.0117 85.6678 14.3945C85.2185 14.4913 84.7392 14.5882 84.17 14.7092C84.5894 14.806 84.859 14.8665 85.1286 14.927C85.0687 15.2901 84.4396 15.3506 83.8405 15.2659C83.3912 15.2054 83.0617 14.9996 82.6123 14.8302C82.4326 14.927 82.133 15.0601 81.8335 15.2054C80.6053 14.9149 79.3172 14.7818 77.9692 14.8907C77.5498 14.927 77.2203 15.1449 76.8309 15.2901C74.6441 15.1691 72.2177 15.0359 69.7913 14.8907C69.2821 14.8544 68.8028 14.7213 68.2936 14.685C66.4962 14.5519 64.6689 14.4429 62.8716 14.334C62.7518 14.3219 62.572 14.4187 62.3324 14.5034C63.1712 14.8786 64.8187 14.4792 65.3579 15.0601C63.8601 15.2054 62.3923 15.3506 60.9544 15.4837C60.3553 15.3869 59.7263 15.1933 59.0672 15.1933C56.4611 15.2175 53.8849 15.3143 51.2788 15.3748C50.4101 15.399 49.5414 15.3748 48.5528 15.3748C48.6128 15.0843 48.6427 14.8786 48.7026 14.5519C48.1934 14.6729 47.6841 14.7334 47.6542 14.8181C47.4744 15.2054 46.6956 15.2659 45.9767 15.3385C44.0895 15.52 44.0895 15.5079 43.071 15.992C42.6516 15.9194 42.2023 15.871 41.7829 15.7742C41.0639 15.6047 40.4349 15.6289 39.656 15.75C39.027 15.8468 38.1283 15.9073 37.5592 15.7984C36.3609 15.5684 35.4623 15.6531 34.6535 15.992C32.4967 15.6047 30.4297 15.399 28.1831 15.6652C27.554 15.7379 26.8051 15.6894 26.1461 15.7137C25.4871 15.7742 24.7681 15.7379 24.4386 15.8589C23.0906 16.3672 21.2933 16.3793 19.7056 16.6092C18.5973 16.7665 17.3391 16.7181 16.1409 16.6939C16.7101 16.4156 17.2792 16.2582 18.2378 16.4156C19.0166 16.5366 19.0766 16.4761 19.4959 16.0404C18.5673 16.0041 17.6087 15.9194 16.7101 15.9436C16.1709 15.9557 15.6317 16.1251 15.1823 16.2703C14.4934 16.4761 13.8942 16.7181 13.2352 16.9481C13.1154 16.9118 12.9956 16.8755 12.8758 16.827C13.1454 16.5729 13.415 16.3188 13.6846 16.0404C13.415 16.0162 13.1154 15.9678 13.0555 15.992C11.8273 16.5729 9.8802 16.5971 8.38242 16.9602C7.69344 17.1296 6.97451 17.3716 5.92606 17.1901C5.50669 17.1175 4.81771 17.3474 4.24855 17.4443C2.54108 17.7347 1.19308 17.42 0.833616 16.6939C0.623927 16.2582 0.264461 15.8226 0.024816 15.3869C-0.0350951 15.2659 0.024816 15.1449 0.0847272 15.0117C0.204549 14.7213 0.504105 14.4308 0.47415 14.1404C0.414238 13.4022 0.204549 12.676 0.114683 11.9378C0.0847272 11.7805 0.204549 11.611 0.264461 11.4537C0.47415 10.897 0.833617 10.3282 0.893528 9.75942C0.983394 8.91228 1.67237 8.52501 3.70935 8.41609C4.36837 8.37978 5.35691 8.44029 5.59655 8.29507C6.04589 8.00462 6.19566 7.61735 6.22562 7.26639C6.22562 6.84282 5.59655 6.39504 6.79478 6.05618C6.88464 6.04408 6.67495 5.86255 6.67495 5.75363C6.70491 5.24534 6.76482 4.72495 6.82473 4.21666C6.85469 3.76889 6.88464 3.30901 6.97451 2.86123C7.03442 2.61919 7.21415 2.37715 7.30402 2.1351C7.51371 1.59051 8.41238 1.40898 9.6106 1.36057C11.1084 1.30006 12.6062 1.25165 14.4934 1.17904C13.8643 1.33637 13.5348 1.43318 13.2053 1.5421C13.2053 1.59051 13.2352 1.63892 13.2352 1.68733C13.7445 1.68733 14.2238 1.69943 14.733 1.68733C15.9013 1.63892 17.0396 1.56631 18.2078 1.53C19.3162 1.49369 21.1135 1.79624 22.162 2.0988C23.48 2.48606 24.9179 2.54657 26.8051 2.29243C25.1875 2.0988 23.8695 1.94147 22.4316 1.75994C23.5999 1.08222 25.0976 1.05802 26.6553 1.62682C26.865 1.53 27.0747 1.43318 27.1047 1.40898C28.6324 1.53 30.0103 1.66312 31.3883 1.73573C31.8676 1.75994 32.4068 1.62682 32.8861 1.5421C33.4253 1.44528 33.9345 1.31216 34.4737 1.22745C35.7319 1.03381 36.9001 1.07012 38.2182 1.22745C39.8957 1.43318 41.693 1.45739 43.5203 1.5542C43.8798 1.44528 43.73 0.961201 44.8384 1.25165C44.8084 1.40898 44.7485 1.57841 44.6886 1.79624C44.9881 1.77204 45.2278 1.78414 45.3776 1.73573C45.737 1.61471 46.0066 1.42108 46.396 1.33637C46.9652 1.20324 47.774 0.997507 48.2233 1.07012C49.5414 1.27585 50.47 1.07012 51.5184 0.731261C51.848 0.949098 52.1176 1.11853 52.4171 1.32426C53.1061 1.21534 53.825 1.05802 54.544 0.997507C54.7836 0.973303 55.1431 1.19114 55.3827 1.27585C57.4197 0.985405 59.3368 0.646546 61.4637 1.21534C62.3923 1.45739 63.4707 1.46949 64.5491 1.07012C65.5676 0.694954 67.0654 0.513423 68.2636 0.271381C69.2222 0.634444 68.1737 0.803873 68.0839 1.04592C69.2821 1.00961 70.4204 0.973303 71.6486 0.949098C72.0081 0.694954 72.068 0.198769 73.4759 0.513423C73.3561 0.67075 73.2662 0.815975 73.1164 1.00961C73.9252 1.07012 74.7041 1.13063 75.6327 1.20324C75.6926 1.03381 75.7525 0.888588 75.8124 0.743363C77.1604 0.634444 78.2388 0.755465 78.6582 1.27585C79.4071 0.997507 80.0661 0.743363 80.8749 0.440811C81.9533 0.67075 83.0317 0.90069 84.0801 1.13063C84.7092 1.25165 85.2784 1.37267 85.9374 1.08222C86.237 0.985405 86.866 0.973303 87.2854 0.997507C87.9744 1.04592 88.6334 1.17904 89.3523 1.23955C91.0298 1.39688 91.3294 1.30006 91.6889 0.489219C92.1682 0.477117 92.6774 0.452913 93.3065 0.428708C93.3065 0.622342 93.3065 0.767567 93.3065 0.985405C93.9655 0.985405 94.5946 1.03381 95.1637 0.973303C97.2007 0.767567 99.2377 0.912792 101.275 0.90069C104.48 0.888588 107.685 0.828077 110.89 0.815975C111.909 0.815975 112.897 0.9612 113.916 1.00961C114.785 1.04592 115.713 1.13063 116.043 0.622342C116.103 0.513423 116.822 0.392402 117.151 0.428708C118.14 0.525525 119.068 0.707057 120.147 0.864384C119.997 1.10643 119.877 1.33637 119.697 1.66312C120.326 1.65102 121.015 1.71153 121.435 1.60261C121.764 1.5179 121.794 1.23955 122.064 0.924894C122.393 0.876486 123.082 0.779669 123.592 0.707057C124.191 0.852282 124.67 0.9612 125.119 1.08222L125.089 1.07012C125.599 1.02171 126.347 1.05802 126.587 0.924894C127.456 0.428708 128.654 0.477117 129.912 0.452913C129.942 0.985405 128.384 0.61024 128.205 0.985405C129.283 1.15483 130.302 1.03381 130.871 0.67075C131.71 0.138258 131.71 0.138258 133.956 0.404504C133.237 0.549729 132.758 0.646546 132.398 0.719159C132.548 0.864384 132.548 0.936996 132.638 0.9612C133.627 1.20324 134.525 1.19114 135.484 0.90069C136.532 0.586036 137.641 0.259279 139.019 0.682852C140.247 0.44081 141.475 1.00961 142.763 0.682852C142.973 0.634444 143.482 0.67075 143.692 0.743363C145.699 1.38477 147.676 1.07012 149.713 0.779669C150.342 0.682852 150.971 0.537627 151.6 0.525525C153.996 0.501321 156.273 0.174564 158.61 0.0293394C160.047 -0.0553753 160.227 0.00513515 160.437 0.731261C160.886 0.622342 161.216 0.489219 161.635 0.440811C162.474 0.343994 163.432 0.174564 164.181 0.271381C166.338 0.525525 168.375 0.586036 170.532 0.307687C171.7 0.162462 171.76 0.222973 172.629 0.791771C173.707 0.0414414 175.205 0.428708 176.613 0.537627C177.631 0.61024 178.59 0.888588 179.728 0.646546C180.028 0.586036 180.657 0.779669 181.136 0.864384C182.364 1.09432 183.772 1.15483 184.701 0.791771C186.289 0.186667 188.026 0.283483 189.644 0.525525C192.1 0.876486 194.377 0.755465 196.743 0.452913C197.522 0.356096 198.48 0.477117 199.349 0.525525C199.948 0.549729 200.607 0.707057 201.117 0.634444C203.932 0.247177 206.688 0.573934 209.444 0.658648C211.002 0.707057 212.62 0.743363 214.177 0.646546C216.064 0.537627 217.862 0.586036 219.629 0.828077C220.558 0.9612 221.426 0.924894 222.415 0.864384C224.212 0.755465 226.04 0.803873 227.867 0.84018C230.024 0.876486 232.151 0.9612 234.307 1.00961C234.697 1.02171 235.116 0.973303 235.536 0.936996C238.441 0.646546 238.501 0.658648 239.52 1.63892C240.179 1.46949 240.868 1.30006 241.527 1.13063C242.994 1.63892 243.294 1.63892 244.792 1.08222C245.061 1.13063 245.391 1.16694 245.69 1.22745C245.99 1.28796 246.29 1.36057 246.649 1.44528C247.038 1.31216 247.398 1.17904 247.757 1.05802C247.907 1.00961 248.117 0.90069 248.237 0.912792C249.824 1.05802 251.472 0.767567 253.03 1.00961C253.719 1.11853 254.408 1.26375 255.126 1.30006C258.242 1.43318 261.387 1.5179 264.503 1.62682C264.652 1.62682 264.802 1.66312 264.892 1.65102C267.288 1.34847 269.565 1.91727 271.962 1.75994C272.321 1.73573 272.83 1.79624 273.1 1.88096C274.118 2.20772 275.406 2.14721 276.395 2.05039C277.953 1.90516 279.091 2.14721 280.199 2.43766C281.038 2.65549 281.787 2.75231 282.686 2.60708C284.153 2.37715 285.621 2.36504 287.119 2.52237C287.239 2.53447 287.389 2.57078 287.508 2.54657C290.234 2.25612 292.841 2.75231 295.537 2.76441C296.585 2.76441 297.633 2.95805 298.712 3.04276C299.85 3.12748 301.018 3.2848 302.127 3.22429C303.295 3.16378 304.194 3.22429 304.913 3.56315C305.452 3.81729 305.961 3.8294 306.74 3.75678C307.489 3.68417 308.358 3.69627 309.106 3.76889C310.814 3.92621 312.671 3.8657 314.139 4.37399C314.289 4.4224 314.648 4.38609 314.918 4.36189C315.127 4.34979 315.367 4.25297 315.487 4.27717C317.644 4.71285 320.13 4.28928 322.287 4.67654C322.766 4.76126 323.216 4.90648 323.665 5.0154C323.725 5.0275 323.725 5.06381 323.785 5.07591C325.163 5.35426 326.541 5.63261 327.919 5.91096C328.667 6.05618 331.453 6.11669 332.562 6.03198C333.91 6.47975 335.018 7.08486 337.085 6.92753C337.235 6.91543 337.444 7.00014 337.594 7.04855C337.684 7.08486 337.714 7.14537 337.834 7.24219C337.504 7.43582 337.115 7.64156 336.666 7.9078C337.205 8.01672 337.624 8.10144 337.984 8.19825C339.272 8.54921 339.571 9.23903 338.583 9.72311C337.954 10.0378 337.175 10.0015 336.336 9.84414C335.707 9.72311 335.108 9.45687 334.299 9.6505C334.239 10.1588 335.467 10.0741 335.857 10.2435C336.306 10.7276 336.666 11.1512 337.175 11.72C336.276 11.6716 335.677 11.6594 335.138 11.5989C333.071 11.3327 331.573 11.6837 331.184 12.5671C329.866 12.906 328.667 12.4824 327.619 12.313C326.151 12.083 324.803 11.9136 323.245 11.9862C322.047 12.0467 321.029 11.9741 320.579 11.4174C318.692 11.5505 316.955 11.6958 315.217 11.7805C314.229 11.8289 313.12 11.8531 312.192 11.72C309.765 11.3569 307.279 11.3085 304.763 11.3206C304.044 11.3206 303.475 11.369 302.966 11.0907C302.396 10.8002 301.618 10.8849 300.899 11.0422C300.12 11.2238 299.371 11.4053 298.562 11.611C297.154 11.1996 295.986 10.5945 293.919 10.8244C293.799 10.5703 293.679 10.3403 293.559 10.0983C293.44 10.0983 293.26 10.0741 293.2 10.0983C292.601 10.3645 292.092 10.655 291.433 10.897C290.714 11.1512 289.875 11.369 288.916 11.6352C288.976 11.6837 289.186 11.841 289.456 12.0346C289.905 11.9136 290.204 11.8289 290.534 11.7442C291.792 11.4053 292.002 11.4416 292.661 12.1314C293.619 11.6716 294.698 11.5626 296.076 11.8289C297.094 12.0225 298.262 12.1193 299.401 12.2403C299.64 12.2646 300 12.313 300.18 12.2646C301.288 11.9741 301.977 12.1919 302.426 12.5792C304.613 12.2525 306.71 12.3614 308.777 12.4098C309.226 12.4219 309.765 12.4945 310.125 12.6034C311.143 12.9302 312.102 13.1359 313.48 12.9423C313.929 12.8818 314.708 13.1238 315.307 13.2448C315.547 13.2932 315.727 13.3779 315.966 13.4506C317.883 14.0194 317.883 14.0194 319.022 13.1117C319.95 13.2448 320.909 13.39 321.867 13.5232C322.437 13.5958 323.036 13.6926 323.635 13.7047C325.223 13.7289 326.451 13.9346 326.84 14.564C328.578 14.564 330.195 14.5034 331.753 14.5882C332.622 14.6366 333.52 14.8907 334.179 15.157C334.898 15.4474 335.587 15.52 336.546 15.52C338.343 15.52 340.14 15.5805 342.087 15.6289C341.968 16.3551 344.244 16.7302 343.196 17.4685C344.035 17.7952 344.813 17.9888 345.922 17.9404C346.311 17.9162 346.731 17.9888 347.12 18.0615C347.869 18.1946 348.258 18.5213 347.809 18.7392C347.27 19.0175 346.82 19.2596 346.611 19.6105C346.431 19.9494 346.012 20.264 345.682 20.5787C345.502 20.7239 345.263 20.8691 344.963 21.0507C343.645 20.5424 342.657 20.4819 341.279 20.8449C339.841 21.208 338.103 21.4137 336.695 20.6755C335.827 20.2277 335.168 20.5545 334.599 20.8812C334.239 20.8449 333.88 20.8328 333.58 20.7723C331.603 20.3245 329.506 20.5061 327.409 20.5182C326.81 20.9176 326.091 20.615 325.402 20.5908C324.953 20.5787 324.414 20.5787 323.994 20.6513C322.766 20.8328 321.538 21.0628 320.34 21.2685C319.681 20.7844 320.999 20.8207 321.179 20.5182C320.849 20.2882 320.46 20.1188 319.591 20.3003C317.943 20.6513 316.266 20.6271 314.528 20.4214C313.63 20.3124 312.671 20.2398 311.802 20.1551C311.563 20.2761 311.413 20.3367 311.323 20.3972C310.424 21.0023 309.286 21.0386 308.477 20.4335C307.878 19.9978 307.159 19.6952 305.841 19.5137C305.841 19.7558 305.841 19.9373 305.841 20.1309C305.572 20.1309 305.302 20.1672 305.182 20.1309C304.613 19.9736 304.074 19.8163 303.565 19.6347C303.025 19.4411 302.546 19.3322 301.737 19.429C301.078 19.5016 300.299 19.3806 299.461 19.3443C299.491 19.4532 299.551 19.5863 299.64 19.8284C298.862 19.6831 298.203 19.5742 297.484 19.4411C297.214 19.5258 296.855 19.6105 296.585 19.7315C295.776 20.0583 294.997 20.1551 294.099 19.7921C293.829 19.6831 293.41 19.6105 293.02 19.5742C292.182 19.4774 291.253 19.4653 290.474 19.3322C289.725 19.2112 289.096 18.9812 288.317 18.7634C288.527 18.5939 288.767 18.3882 289.006 18.1946C288.886 18.1583 288.767 18.122 288.617 18.0857C287.958 18.3882 287.299 18.7029 286.52 19.0659C286.16 18.8239 285.861 18.6303 285.561 18.4487C285.412 18.4608 285.232 18.4487 285.172 18.4729C284.513 18.8481 283.794 19.2354 283.195 19.6347C282.865 19.8526 282.626 20.1309 281.847 19.9736C281.188 19.8405 281.427 19.5984 281.667 19.3927C281.787 19.2959 281.847 19.1991 282.057 19.0054C281.308 19.0175 280.798 19.0417 280.289 19.0417C279.48 19.0538 278.702 19.0538 277.893 19.0659C277.623 19.0659 277.294 19.0417 277.114 19.0901C275.856 19.4048 274.687 19.2838 273.789 18.8965C271.722 18.0009 269.206 18.2551 266.749 18.4003C265.97 18.4487 265.401 18.4971 264.622 18.3519C263.874 18.2067 262.945 18.1704 262.076 18.1099C261.477 18.0736 260.788 18.1462 260.279 18.0494C258.092 17.6742 255.726 17.9525 253.509 17.7347C253.449 17.7226 253.359 17.7105 253.299 17.7226C251.202 18.2672 249.375 17.5774 247.428 17.4927C246.889 17.4685 246.349 17.4927 246.29 17.4927C245.211 17.8194 244.462 18.0494 243.594 18.3156C243.414 18.1462 243.294 18.0494 243.174 17.9525C243.444 17.7952 244.522 17.7468 243.414 17.3716C243.264 17.5774 243.204 17.7589 243.144 17.9283ZM148.994 6.35873C148.305 6.06828 148.005 6.27402 147.886 6.58867C148.275 6.50396 148.664 6.41924 149.024 6.33453C149.204 6.51606 149.263 6.7339 150.072 6.58867C149.743 6.51606 149.383 6.44345 148.994 6.35873ZM76.7111 9.22693C76.2018 9.26324 75.6926 9.29954 75.1833 9.33585C75.9622 9.57789 76.3516 9.42056 76.6811 9.20273C76.8908 9.21483 77.1005 9.26324 77.2503 9.23903C77.43 9.21483 77.5199 9.11801 77.6697 9.0575C77.4899 9.0333 77.2503 8.96068 77.1904 8.98489C76.9807 9.0454 76.8609 9.14221 76.7111 9.22693ZM166.638 11.2117C167.357 11.018 168.046 10.8123 167.716 10.3645C167.387 10.655 167.027 10.9333 166.698 11.2238C166.458 11.2601 166.218 11.2843 165.649 11.3569C166.278 11.49 166.638 11.5626 167.417 11.72C166.967 11.4416 166.817 11.3206 166.638 11.2117ZM330.555 16.7423C330.884 16.8391 331.214 16.9239 331.543 17.0207C331.603 16.9723 331.633 16.936 331.693 16.8876C331.303 16.8512 330.914 16.8028 330.495 16.7665C330.375 16.6213 330.285 16.464 330.165 16.3188C329.896 16.3914 329.626 16.464 329.087 16.5971C329.836 16.6576 330.195 16.6939 330.555 16.7423ZM202.674 10.4129C202.165 10.2193 201.686 10.0136 201.027 9.74732C201.326 10.4734 201.326 10.4734 202.644 10.3887C203.693 10.1951 203.693 10.1951 202.944 9.71101C202.824 10.0015 202.734 10.2072 202.674 10.4129ZM82.4925 11.2359C82.2828 11.127 82.0731 10.9091 81.8634 10.9091C80.9348 10.9091 80.0361 10.9696 79.0177 11.018C78.9278 11.1875 78.8679 11.3569 78.778 11.5868C80.0661 11.2722 80.0661 11.2722 82.5524 11.2117C82.0731 11.4295 81.5938 11.6352 80.9648 11.9257C82.0731 11.9862 83.0317 12.1798 84.17 11.9015C83.8106 11.5505 83.3912 11.3085 82.4925 11.2359ZM49.4515 2.06249C49.3916 1.83255 49.3017 1.57841 48.5528 1.62682C48.2533 1.63892 48.0436 1.80835 47.5344 1.98988C48.433 2.01408 48.9722 2.03829 49.5114 2.05039C49.811 2.24402 50.2004 2.47396 50.7696 2.30453C51.4885 2.0867 52.0277 2.1109 52.8065 2.25612C53.7352 2.42555 53.9149 2.17141 53.825 1.85676C52.1775 1.57841 50.8594 1.97778 49.4515 2.06249ZM93.5761 9.92885C93.5461 9.37215 93.5461 9.37216 92.1682 9.42056C92.7373 9.6142 93.1567 9.77152 93.606 9.91675C94.4448 10.5461 95.7029 9.98936 96.961 10.1588C96.5117 9.68681 97.2007 9.6263 97.9196 9.57789C98.3989 9.55369 98.8782 9.56579 99.3275 9.49318C99.5672 9.45687 99.8967 9.29954 99.8667 9.21483C99.8068 9.08171 99.5372 8.88807 99.2377 8.86387C98.1892 8.75495 98.7883 9.20273 98.2791 9.23903C96.7214 9.46897 95.1637 9.69891 93.5761 9.92885ZM265.761 10.0499C265.102 10.0015 264.443 9.95305 263.784 9.91675C262.466 9.83203 261.357 9.67471 261.178 9.0454C261.148 8.94858 260.938 8.86387 260.758 8.74285C260.189 8.83966 259.74 8.93648 259.26 9.02119C259.53 9.28744 259.71 9.52948 260.009 9.73522C260.429 10.0257 260.908 10.2919 261.896 10.2556C262.765 10.2314 263.664 10.2677 264.533 10.2314C264.952 10.2193 265.341 10.1104 265.731 10.0378C266.689 10.062 267.648 10.0983 268.906 10.1346C267.229 9.46897 267.229 9.46897 265.761 10.0499ZM272.621 9.6142C271.932 9.72312 270.943 9.51738 270.194 9.97726C270.883 10.1346 271.482 10.3645 272.111 10.3887C273.759 10.4492 275.317 10.5461 276.455 11.1391C277.024 10.897 277.443 10.7034 278.013 10.4492C277.234 10.3645 276.665 10.3161 276.185 10.2677C275.976 10.0257 275.826 9.83204 275.556 9.51738C274.957 9.79573 274.658 10.0741 274.148 10.1709C273.01 10.3645 273.31 9.79573 272.621 9.6142ZM68.0539 8.53711C66.6161 8.60972 65.4478 8.67023 64.2496 8.73074C64.2496 8.76705 64.2795 8.80336 64.2795 8.82756C65.7174 8.97279 67.1253 9.11801 68.7129 9.27534C68.3834 9.44477 68.2337 9.51738 68.0839 9.6142C69.7314 10.062 71.1993 9.75942 72.757 9.54158C72.5173 9.20273 72.038 9.10591 71.4689 9.21483C70.001 9.49318 69.1623 9.21483 68.4433 8.74285C68.2636 8.64603 68.0839 8.56131 68.0539 8.53711ZM90.0413 13.5716C92.0184 13.741 95.4633 13.7047 96.3619 13.5353C93.636 13.0875 91.569 13.0875 90.0413 13.5716ZM114.305 2.89754C114.305 2.83702 114.305 2.77651 114.305 2.716C111.4 2.6797 108.494 2.63129 105.588 2.61919C105.379 2.61919 105.199 2.76441 104.839 2.90964C108.164 2.89754 111.25 2.89754 114.305 2.89754ZM112.598 9.38426C110.471 9.58999 108.823 9.74732 106.786 9.94095C108.494 10.0862 109.722 10.1951 111.04 10.3161C111.519 10.0378 111.969 9.77152 112.598 9.38426ZM90.3109 11.1028C91.1497 11.127 92.1382 11.0664 92.8571 11.1996C93.9954 11.4174 94.4148 11.2117 94.9241 10.8728C91.1796 10.4371 90.94 10.4492 90.3109 11.1028ZM342.747 19.671C342.447 19.5621 342.087 19.3201 341.548 19.2233C341.039 19.1264 340.29 19.4532 340.26 19.7315C340.23 20.0462 340.74 20.1672 341.428 20.1914C342.117 20.2156 342.657 20.143 342.747 19.671ZM139.258 1.80835C138.869 1.15483 138.899 1.16694 137.611 1.45739C137.131 1.56631 136.592 1.61471 135.664 1.74784C137.491 2.1109 139.079 2.03829 140.606 2.05039C140.666 2.05039 140.756 1.98988 140.876 1.92937C140.277 1.88096 139.738 1.84465 139.258 1.80835ZM171.55 13.1238C169.334 13.3658 167.506 13.5716 165.679 13.7773C165.739 13.8378 165.769 13.9104 165.829 13.9709C167.776 13.9467 169.753 13.9467 171.55 13.1238ZM94.3849 1.75994C95.0738 1.94147 95.5831 2.18351 95.8227 2.14721C96.9311 1.96567 98.309 2.28033 99.6271 1.82045C97.7998 1.67522 96.3619 1.50579 94.3849 1.75994ZM58.2884 3.95042C58.2285 3.88991 58.1985 3.8294 58.1386 3.75678C56.9104 3.75678 55.7122 3.73258 54.484 3.76889C54.2144 3.78099 54.0048 3.97462 53.7651 4.08354C54.0647 4.15615 54.3942 4.28928 54.6937 4.27717C55.6224 4.25297 56.551 4.19246 57.4796 4.11985C57.7792 4.10774 58.0488 4.01093 58.2884 3.95042ZM100.855 12.676C102.623 12.2282 103.581 11.9015 103.761 11.72C103.012 11.72 102.173 11.6352 101.514 11.7442C100.556 11.9136 100.526 12.3009 100.855 12.676ZM125.299 14.4066C124.281 13.7168 122.813 13.7773 121.225 14.5276C122.573 14.4913 123.801 14.455 125.299 14.4066ZM281.667 10.4492C282.296 10.8607 283.764 11.1754 284.603 11.1028C284.902 11.0785 285.112 10.8849 285.591 10.655C284.153 10.5703 283.075 10.5219 281.667 10.4492ZM61.3738 11.49C59.936 10.9212 58.9175 10.897 56.9104 11.2843C58.3483 11.4779 59.6664 11.6594 61.3738 11.49ZM72.6671 1.94147C70.69 1.36057 68.8328 1.72363 66.9156 1.94147C68.8328 1.94147 70.7499 1.94147 72.6671 1.94147ZM130.032 1.80835C129.283 1.65102 128.414 1.56631 127.426 1.72363C129.403 2.41345 130.961 2.25612 131.59 1.26375C130.961 1.48159 130.541 1.62682 130.032 1.80835ZM133.297 4.03513C135.993 4.4224 136.892 4.4224 139.258 4.08354C137.251 4.18036 135.544 3.63576 133.297 4.03513ZM45.9767 12.5792C47.3247 12.9423 48.7625 12.5792 50.1704 12.676C48.9123 12.1677 47.4445 12.4582 45.9767 12.5792ZM79.4969 2.01408C78.1489 1.84465 77.2802 1.62682 76.5014 1.68733C75.8124 1.73573 74.764 1.78414 74.3146 2.20772C74.6441 2.23192 74.8538 2.29243 75.0036 2.25612C76.082 2.02618 77.1305 1.88096 78.2388 2.25612C78.3287 2.28033 78.778 2.15931 79.4969 2.01408ZM73.1164 3.11537C72.7569 2.84913 72.5473 2.61919 72.3975 2.61919C71.2592 2.65549 70.1209 2.72811 69.0125 2.80072C69.0425 2.84913 69.0424 2.89754 69.0724 2.95805C70.2407 2.99435 71.4389 3.04276 73.1164 3.11537ZM109.273 1.5179C108.075 1.48159 107.236 1.45739 106.127 1.43318C106.187 1.72363 106.247 1.95357 106.307 2.30453C107.386 2.01408 108.134 1.82045 109.273 1.5179ZM107.715 4.09564C107.685 4.04723 107.655 3.98672 107.595 3.93832C107.026 3.98672 106.487 4.05934 105.918 4.08354C105.289 4.10774 104.63 4.08354 103.971 4.08354C104.6 4.54342 104.6 4.55552 105.169 4.48291C106.038 4.37399 106.876 4.22877 107.715 4.09564ZM89.2026 4.25297C90.6704 4.32558 91.6889 4.38609 93.0069 4.4466C90.7003 3.74468 90.7003 3.74468 89.2026 4.25297ZM51.129 11.3811C52.2673 11.1754 53.0162 11.0422 53.825 10.897C52.8664 10.6066 51.9079 10.5703 51.2788 10.8365C51.0991 10.9212 51.1889 11.127 51.129 11.3811ZM32.7363 10.6308C30.1601 10.4492 29.4711 10.5098 27.8535 11.0059C29.6509 10.8607 31.2086 10.7397 32.7363 10.6308ZM258.032 9.74732C257.193 9.20273 257.193 9.20273 255.875 9.43267C256.984 10.0015 256.984 10.0015 258.032 9.74732ZM159.359 9.22693C161.246 9.95306 161.515 9.96516 162.564 9.45687C161.455 9.38426 160.407 9.31164 159.359 9.22693ZM67.1253 13.5353C66.0169 13.0754 65.2081 13.1359 64.1897 13.4143C65.0883 13.7652 65.8971 13.7168 67.1253 13.5353ZM39.8957 2.01408C42.382 2.46186 42.382 2.46186 43.4304 1.92937C42.1124 1.95357 41.004 1.97778 39.8957 2.01408ZM49.7511 3.76889C48.7925 3.74468 47.8339 3.72048 46.6956 3.68417C47.804 4.27717 47.8639 4.27717 49.7511 3.76889ZM202.465 2.60708C202.465 2.54657 202.495 2.48606 202.495 2.42555C201.117 2.41345 199.769 2.26823 198.391 2.60708C199.739 2.60708 201.087 2.60708 202.465 2.60708ZM288.587 16.6092C287.179 15.641 287.179 15.641 286.011 15.7863C286.909 16.0767 287.748 16.343 288.587 16.6092ZM146.388 1.67522C147.227 2.0988 148.185 1.97778 149.174 2.02618C147.975 1.37267 147.975 1.37267 146.388 1.67522ZM309.286 9.6263C308.717 9.36005 308.088 9.34795 307.369 9.52948C308.178 10.062 308.178 10.062 309.286 9.6263ZM60.3553 13.4385C62.2425 13.741 62.2425 13.741 62.9016 13.2448C61.913 13.3174 61.1342 13.3779 60.3553 13.4385ZM170.951 10.5098C171.61 10.9696 172.269 10.9333 173.228 10.6066C172.479 10.4008 171.94 10.2072 170.951 10.5098ZM82.822 3.50264C81.6837 3.46633 80.9348 3.30901 80.3956 3.76889C81.2643 3.90201 81.9233 3.95042 82.822 3.50264ZM170.592 4.30138C171.461 4.36189 171.91 4.4103 172.359 4.4345C172.539 4.4466 172.749 4.4103 172.928 4.39819C172.569 3.8415 172.569 3.8415 170.592 4.30138ZM58.558 10.3645C58.558 10.2798 58.588 10.2072 58.588 10.1225C57.7192 10.2072 56.8505 9.74732 55.6523 10.2435C56.8206 10.2919 57.6893 10.3282 58.558 10.3645ZM279.66 9.96516C279.42 10.1709 279.151 10.2919 279.151 10.425C279.151 10.4976 279.63 10.6429 279.81 10.6187C280.109 10.5824 280.529 10.425 280.499 10.3524C280.439 10.2314 280.049 10.1346 279.66 9.96516ZM96.9311 2.80072C97.9795 3.00645 98.8782 2.89754 99.8967 2.58288C98.5786 2.28033 97.8597 2.716 96.9311 2.80072ZM60.8346 1.83255C59.8161 1.69943 59.1571 1.72363 58.4681 2.18351C59.4267 2.15931 60.1756 2.35294 60.8346 1.83255ZM80.8749 1.83255C81.9233 1.83255 82.5524 1.83255 83.2414 1.83255C82.5824 1.33637 82.5824 1.33637 80.8749 1.83255ZM151.3 10.8849C152.409 11.2238 152.409 11.2238 153.907 10.8002C152.978 10.8365 152.199 10.8607 151.3 10.8849ZM108.674 10.9817C109.572 10.9817 110.171 10.9817 111.01 10.9817C109.902 10.5824 109.902 10.5824 108.674 10.9817ZM20.2748 15.3264C21.2633 15.6652 21.9223 15.4474 22.4615 15.0964C21.7426 15.1691 21.0237 15.2538 20.2748 15.3264ZM105.319 12.7728C106.247 13.0028 106.906 12.9181 107.895 12.7365C106.876 12.5308 106.187 12.4945 105.319 12.7728ZM125.389 2.46186C125.269 3.21219 125.389 3.2485 126.917 3.09117C126.437 2.88543 126.018 2.716 125.389 2.46186ZM149.174 2.92174C149.114 2.81282 149.054 2.716 148.994 2.60708C148.395 2.6918 147.766 2.76441 147.167 2.84913C147.197 2.90964 147.256 2.97015 147.286 3.04276C147.886 2.99435 148.515 2.95805 149.174 2.92174ZM84.859 1.75994C86.4466 2.26823 86.4466 2.26823 87.3154 1.92937C86.6264 1.89306 85.9973 1.84465 84.859 1.75994ZM310.454 9.57789C310.754 10.062 311.203 10.1709 311.802 10.0862C311.952 10.062 312.012 9.91675 312.132 9.83203C311.683 9.75942 311.233 9.68681 310.454 9.57789ZM307.639 7.14537C307.639 7.08486 307.639 7.02435 307.639 6.96384C306.92 6.90333 306.201 6.81861 305.572 7.14537C306.261 7.14537 306.95 7.14537 307.639 7.14537ZM80.6353 13.62C80.6353 13.5595 80.6353 13.5111 80.6353 13.4506C79.9163 13.4506 79.1974 13.4506 78.5084 13.4506C78.5084 13.5111 78.5084 13.5595 78.5084 13.62C79.2273 13.62 79.9463 13.62 80.6353 13.62ZM105.229 14.6124C106.127 14.7092 106.607 14.7576 107.386 14.8423C106.966 14.2614 106.457 14.2009 105.229 14.6124ZM279.151 16.7786C279.121 16.8512 279.091 16.9118 279.031 16.9844C279.72 17.057 280.379 17.2022 281.068 17.0328C281.068 16.9723 281.098 16.8997 281.098 16.8391C280.469 16.827 279.81 16.8028 279.151 16.7786ZM127.426 4.33768C125.778 4.03513 125.778 4.03513 125.059 4.49501C125.868 4.4466 126.437 4.4103 127.426 4.33768ZM222.924 1.32426C221.786 1.44528 221.576 1.63892 222.085 1.88096C222.175 1.91727 222.595 1.90516 222.595 1.89306C222.744 1.71153 222.804 1.5179 222.924 1.32426ZM77.43 10.5219C76.5613 10.5582 75.9622 10.5945 75.1833 10.6308C76.1419 11.018 76.1419 11.018 77.43 10.5219ZM163.732 10.4371C163.702 10.5219 163.672 10.5945 163.612 10.6792C164.091 10.897 164.601 10.9938 165.499 10.5945C164.721 10.5219 164.211 10.4734 163.732 10.4371ZM76.8009 6.00777C76.8309 6.09249 76.8609 6.1651 76.8609 6.24981C77.5199 6.21351 78.1789 6.1772 79.1674 6.12879C78.119 5.70522 77.46 5.88675 76.8009 6.00777ZM131.08 5.10012C130.272 4.82177 129.792 4.9791 129.103 5.22114C129.942 5.35426 130.511 5.41477 131.08 5.10012ZM98.1593 11.4053C98.4289 11.2359 98.7284 11.1149 98.6985 11.0301C98.6685 10.9333 98.2791 10.8728 98.0394 10.8002C97.8597 10.897 97.5602 10.9938 97.5302 11.0907C97.5302 11.1633 97.8597 11.2601 98.1593 11.4053ZM86.5365 5.11222C87.7946 5.43897 87.7946 5.43898 88.4836 4.90648C87.6748 4.9912 87.1057 5.05171 86.5365 5.11222ZM122.753 2.35294C124.251 2.51027 124.251 2.51027 124.49 1.96567C123.921 2.0867 123.412 2.20772 122.753 2.35294ZM71.8583 11.6473C70.69 11.5263 69.9711 11.4416 69.0724 11.3448C69.8213 11.8168 69.8213 11.8168 71.8583 11.6473ZM188.955 8.83966C188.415 8.56131 187.996 8.37978 187.157 8.57342C187.457 8.92438 187.966 9.00909 188.955 8.83966ZM290.893 3.58735C289.216 3.55105 289.216 3.55105 289.426 4.01093C289.935 3.8657 290.414 3.72048 290.893 3.58735ZM116.552 13.4143C117.84 13.6805 117.84 13.6805 118.799 13.4143C117.93 13.4143 117.241 13.4143 116.552 13.4143ZM117.87 9.95306C117.301 9.66261 116.822 9.58999 116.282 9.80783C116.163 9.85624 116.252 9.98936 116.222 10.1588C116.852 10.0862 117.301 10.0257 117.87 9.95306ZM256.954 17.0812C256.954 17.1417 256.954 17.2143 256.954 17.2748C257.793 17.2385 258.661 17.2022 259.5 17.1659C259.5 17.1417 259.47 17.1054 259.47 17.0812C258.631 17.0812 257.793 17.0812 256.954 17.0812ZM256.415 10.8486C256.235 11.127 256.085 11.3569 255.905 11.6473C257.074 11.3932 257.074 11.3932 256.415 10.8486ZM319.022 16.7907C317.943 16.5245 317.434 16.5245 316.775 16.9602C317.614 16.8876 318.093 16.8512 319.022 16.7907ZM312.521 16.7907C312.372 16.7544 312.222 16.7181 312.042 16.6818C311.922 16.8028 311.653 16.9239 311.713 17.0328C311.742 17.1296 312.072 17.2264 312.312 17.2748C312.402 17.299 312.821 17.1659 312.821 17.1054C312.851 17.0086 312.641 16.8997 312.521 16.7907ZM319.201 18.122C319.291 18.5939 319.831 18.5697 320.879 18.4245C320.07 18.2914 319.651 18.2067 319.201 18.122ZM117.031 4.28928C115.653 4.07144 115.653 4.07144 114.934 4.4345C115.653 4.38609 116.133 4.34979 117.031 4.28928ZM31.0887 11.6958C31.0887 11.6231 31.0887 11.5505 31.1187 11.4779C30.5196 11.4779 29.9205 11.4779 29.3214 11.4779C29.3214 11.5142 29.2914 11.5626 29.2914 11.5989C29.8905 11.6352 30.4896 11.6594 31.0887 11.6958ZM328.578 11.49C329.057 11.8773 329.057 11.8773 330.045 11.7563C329.446 11.6473 328.997 11.5626 328.578 11.49ZM99.6571 13.4022C99.687 13.4869 99.7469 13.5716 99.7769 13.6563C100.316 13.6079 100.885 13.5595 101.424 13.5111C101.394 13.4385 101.365 13.3658 101.335 13.2932C100.795 13.3295 100.226 13.3658 99.6571 13.4022ZM258.242 13.4385C258.122 13.5111 258.002 13.5958 257.852 13.6684C258.272 13.7652 258.691 13.862 259.111 13.9588C259.2 13.8983 259.29 13.8499 259.38 13.7894C259.021 13.6805 258.631 13.5595 258.242 13.4385ZM254.977 5.24534C255.336 5.53579 255.726 5.76573 256.564 5.40267C255.905 5.34216 255.456 5.29375 254.977 5.24534ZM72.9367 3.81729C72.3975 3.8536 71.8583 3.90201 71.3191 3.93832C72.0081 4.22877 72.5772 4.20456 72.9367 3.81729ZM144.92 8.5008C146.148 8.82756 146.148 8.82756 147.137 8.62183C146.448 8.58552 145.819 8.54921 144.92 8.5008ZM221.516 9.22693C221.187 9.10591 220.977 8.99699 220.827 9.00909C220.618 9.02119 220.318 9.11801 220.258 9.19062C220.198 9.26324 220.468 9.36005 220.588 9.44477C220.827 9.38426 221.097 9.33585 221.516 9.22693ZM57.0003 9.38426C56.1616 9.0454 55.6224 9.0454 55.0532 9.32375C55.5624 9.34795 56.0717 9.36005 57.0003 9.38426ZM248.806 9.28744C248.836 9.34795 248.866 9.42056 248.866 9.48107C249.255 9.46897 249.615 9.44477 250.004 9.43267C249.974 9.36005 249.914 9.22693 249.884 9.22693C249.525 9.23903 249.165 9.26324 248.806 9.28744ZM131.979 9.51738C131.68 9.42056 131.47 9.34795 131.23 9.28744C131.2 9.27534 130.871 9.40846 130.901 9.43267C131.05 9.54158 131.26 9.6263 131.47 9.72311C131.59 9.6626 131.739 9.6142 131.979 9.51738ZM119.997 3.00645C120.027 2.95805 120.087 2.90964 120.117 2.86123C119.907 2.81282 119.727 2.74021 119.518 2.716C119.278 2.6918 118.978 2.72811 118.709 2.74021C118.709 2.80072 118.709 2.84913 118.709 2.89754C119.158 2.93384 119.578 2.97015 119.997 3.00645ZM245.96 10.9817C246.769 11.1149 247.338 11.1875 247.877 10.8728C247.098 10.5703 246.649 10.776 245.96 10.9817ZM224.122 10.4371C225.141 10.4129 225.53 10.3161 225.56 10.0257C225.56 9.98936 225.381 9.95305 225.171 9.86834C224.871 10.0257 224.602 10.183 224.122 10.4371ZM122.393 4.25297C122.393 4.20456 122.393 4.15615 122.393 4.10774C121.854 4.10774 121.285 4.10774 120.746 4.10774C120.746 4.15615 120.746 4.20456 120.746 4.25297C121.285 4.25297 121.824 4.25297 122.393 4.25297ZM127.246 11.8652C127.276 11.9257 127.336 11.9862 127.366 12.0467C127.965 12.0588 128.564 12.0709 128.984 11.6231C128.235 11.7321 127.725 11.8047 127.246 11.8652ZM73.8353 12.313C73.6556 12.3372 73.4759 12.3493 73.2961 12.3735C73.3561 12.5187 73.416 12.6639 73.5058 12.8091C73.7455 12.7849 73.9851 12.7607 74.2248 12.7486C74.075 12.5913 73.9552 12.4461 73.8353 12.313ZM81.9533 10.0983C81.9533 10.0257 81.9533 9.96516 81.9833 9.89254C81.4141 9.89254 80.8749 9.89254 80.3057 9.89254C80.3057 9.94095 80.3057 9.98936 80.3057 10.0378C80.8449 10.062 81.3842 10.0741 81.9533 10.0983ZM318.363 5.51159C319.411 5.62051 319.411 5.62051 319.89 5.30585C319.291 5.37846 318.812 5.43898 318.363 5.51159ZM80.156 5.99567C80.156 6.05618 80.1859 6.11669 80.1859 6.1772C80.7551 6.153 81.3542 6.12879 81.9234 6.11669C81.9234 6.05618 81.8934 6.00777 81.8934 5.94726C81.3242 5.97147 80.7251 5.98357 80.156 5.99567ZM126.138 6.29822C125.449 6.29822 124.91 6.29822 124.041 6.29822C124.91 6.54027 125.449 6.7339 126.138 6.29822ZM273.459 16.8633C273.519 16.8028 273.579 16.7302 273.639 16.6697C273.28 16.6213 272.92 16.585 272.531 16.5366C272.501 16.585 272.441 16.6334 272.411 16.6818C272.77 16.7302 273.1 16.7907 273.459 16.8633ZM86.237 3.78099C85.9074 3.62366 85.8176 3.52684 85.6378 3.49054C85.518 3.46633 85.1286 3.51474 85.1286 3.53895C85.1286 3.62366 85.1585 3.75678 85.2784 3.79309C85.4281 3.8294 85.7277 3.79309 86.237 3.78099ZM167.027 6.97594C166.638 6.89123 166.398 6.80651 166.218 6.81861C166.039 6.83072 165.889 6.95174 165.739 7.02435C165.919 7.08486 166.099 7.18168 166.308 7.18168C166.488 7.18168 166.668 7.08486 167.027 6.97594ZM162.084 2.20772C162.025 2.123 161.965 2.05039 161.905 1.96567C161.545 2.01408 161.156 2.07459 160.796 2.123C160.856 2.18351 160.886 2.24402 160.946 2.30453C161.336 2.26823 161.695 2.24402 162.084 2.20772ZM337.175 18.6424C336.995 18.7513 336.815 18.836 336.785 18.9328C336.755 18.9691 337.025 19.0417 337.145 19.0901C337.325 19.0054 337.534 18.9207 337.684 18.8239C337.684 18.8118 337.414 18.7271 337.175 18.6424ZM234.847 7.98041C234.757 7.93201 234.667 7.8715 234.577 7.82309C234.217 7.93201 233.858 8.02882 233.529 8.13774C233.618 8.18615 233.708 8.23456 233.798 8.29507C234.128 8.18615 234.487 8.08933 234.847 7.98041ZM318.602 8.04093C318.453 8.08933 318.333 8.14984 318.183 8.19825C318.512 8.33138 318.872 8.4645 319.201 8.59762C319.321 8.54921 319.441 8.5008 319.561 8.4645C319.261 8.33138 318.932 8.18615 318.602 8.04093ZM95.4034 8.44029C95.2236 8.53711 95.0439 8.60972 94.954 8.69444C94.9241 8.73074 95.2835 8.83966 95.2835 8.83966C95.5232 8.76705 95.7029 8.68234 95.9126 8.60972C95.7928 8.56131 95.643 8.51291 95.4034 8.44029ZM93.4562 2.47396C93.4562 2.54657 93.4562 2.60708 93.4862 2.6797C93.9056 2.65549 94.325 2.63129 94.7443 2.61919C94.7443 2.57078 94.7144 2.52237 94.7144 2.47396C94.295 2.47396 93.8756 2.47396 93.4562 2.47396ZM45.0181 8.98489C44.4789 8.94858 44.1194 8.91228 43.76 8.90017C43.5802 8.90017 43.4005 8.93648 42.9811 8.98489C43.7899 9.11801 44.2992 9.32375 45.0181 8.98489ZM35.3724 11.841C35.4023 11.7805 35.4023 11.72 35.4323 11.6473C34.953 11.6473 34.4438 11.6473 33.9645 11.6473C33.9645 11.6958 33.9645 11.7321 33.9345 11.7805C34.4438 11.8047 34.8931 11.8168 35.3724 11.841ZM240.239 9.48107C239.609 9.29954 239.34 9.20273 239.04 9.13011C238.921 9.10591 238.711 9.14221 238.291 9.17852C238.651 9.31164 238.831 9.42056 239.1 9.46897C239.28 9.50528 239.58 9.48107 240.239 9.48107ZM131.859 12.7728C131.829 12.8334 131.829 12.8939 131.799 12.9544C132.398 12.9302 132.968 12.9181 133.567 12.8939C133.567 12.8576 133.567 12.8091 133.567 12.7728C132.998 12.7728 132.428 12.7728 131.859 12.7728ZM227.148 13.8862C227.208 13.8015 227.268 13.7289 227.328 13.6442C226.968 13.6079 226.609 13.5595 226.249 13.5232C226.219 13.5232 226.1 13.6563 226.129 13.6563C226.459 13.741 226.818 13.8136 227.148 13.8862ZM329.237 9.57789C329.356 9.52948 329.476 9.49318 329.626 9.44477C329.386 9.34795 329.147 9.23903 328.877 9.15432C328.877 9.15432 328.637 9.25113 328.518 9.29954C328.757 9.38426 328.997 9.48107 329.237 9.57789ZM41.4833 10.4613C41.6631 10.5098 41.8428 10.5582 42.0225 10.5945C42.0824 10.4855 42.2023 10.3766 42.2023 10.2677C42.2023 10.2072 41.9626 10.0983 41.8428 10.1104C41.6032 10.1104 41.3935 10.1709 41.1538 10.2193C41.2437 10.2919 41.3635 10.3766 41.4833 10.4613ZM183.353 1.92937C184.491 1.90516 185.09 1.89306 185.27 1.45739C184.641 1.61471 184.192 1.72363 183.353 1.92937ZM207.587 1.28796C207.587 1.34847 207.617 1.40898 207.617 1.46949C207.976 1.44528 208.306 1.42108 208.665 1.39688C208.665 1.36057 208.635 1.31216 208.635 1.27585C208.276 1.28796 207.946 1.28796 207.587 1.28796ZM143.871 2.20772C143.722 2.0867 143.662 1.97778 143.572 1.96567C143.332 1.94147 143.093 1.97778 142.823 1.98988C142.883 2.07459 142.913 2.20772 143.033 2.23192C143.242 2.26823 143.512 2.21982 143.871 2.20772ZM237.962 2.24402C237.902 2.19561 237.872 2.1351 237.812 2.0867C237.423 2.1351 237.033 2.17141 236.644 2.21982C236.704 2.28033 236.764 2.35294 236.824 2.41345C237.213 2.35294 237.602 2.29243 237.962 2.24402ZM20.125 2.95805C20.2748 2.76441 20.4246 2.6797 20.3946 2.59498C20.3946 2.53447 20.1849 2.47396 20.0951 2.42555C19.9153 2.48606 19.6457 2.54657 19.6158 2.61919C19.5858 2.6797 19.8254 2.76441 20.125 2.95805ZM83.6907 2.48606C83.6907 2.41345 83.6907 2.35294 83.6907 2.28033C83.3313 2.29243 83.0018 2.30453 82.6423 2.32874C82.6423 2.37715 82.6722 2.42555 82.6722 2.47396C83.0018 2.47396 83.3612 2.47396 83.6907 2.48606ZM85.4581 10.5945C85.3982 10.6429 85.3682 10.6913 85.3083 10.7397C85.7277 10.8123 86.1471 10.897 86.5665 10.9696C86.6264 10.9212 86.6563 10.8728 86.7162 10.8244C86.2969 10.7518 85.8775 10.6792 85.4581 10.5945ZM242.126 2.60708C241.916 2.7039 241.676 2.76441 241.706 2.80072C241.736 2.86123 241.916 2.94594 242.066 2.95805C242.216 2.97015 242.395 2.90964 242.575 2.87333C242.425 2.80072 242.305 2.716 242.126 2.60708ZM74.764 3.45423C74.734 3.52684 74.7041 3.61156 74.7041 3.68417C75.1234 3.69627 75.5129 3.70838 75.9322 3.70838C75.9322 3.64786 75.9622 3.58735 75.9622 3.52684C75.5428 3.51474 75.1534 3.47844 74.764 3.45423ZM182.724 3.98672C182.334 3.92621 182.125 3.8657 181.885 3.8778C181.765 3.8778 181.615 3.97462 181.496 4.03513C181.705 4.08354 181.885 4.15615 182.125 4.18036C182.275 4.18036 182.424 4.08354 182.724 3.98672ZM192.699 4.28928C193.688 4.36189 194.107 4.30138 194.347 4.09564C194.377 4.07144 194.287 3.99883 194.167 3.90201C193.777 3.99883 193.388 4.09564 192.699 4.28928ZM188.086 11.4416C188.086 11.3811 188.116 11.3327 188.116 11.2722C187.577 11.2601 187.067 11.248 186.528 11.2359C186.528 11.2843 186.498 11.3206 186.498 11.369C187.037 11.3932 187.577 11.4174 188.086 11.4416ZM37.6191 4.27717C37.6191 4.31348 37.6191 4.34979 37.6191 4.38609C38.0984 4.38609 38.5776 4.38609 39.0569 4.38609C39.0569 4.34979 39.0569 4.31348 39.0569 4.27717C38.6076 4.27717 38.1283 4.27717 37.6191 4.27717ZM228.915 11.6958C228.855 11.6594 228.766 11.6231 228.706 11.5868C228.436 11.6594 228.166 11.7321 227.867 11.8047C227.987 11.8531 228.077 11.9136 228.196 11.962C228.436 11.8652 228.676 11.7805 228.915 11.6958ZM153.996 4.24087C153.877 4.30138 153.787 4.36189 153.667 4.4345C154.026 4.53132 154.386 4.62813 154.745 4.72495C154.835 4.67654 154.895 4.64024 154.985 4.59183C154.655 4.47081 154.326 4.34979 153.996 4.24087ZM85.8775 12.6276C85.9074 12.555 85.9074 12.4824 85.9374 12.3977C85.518 12.3977 85.1286 12.3977 84.7092 12.3977C84.7092 12.4461 84.6793 12.4945 84.6793 12.5429C85.0986 12.5792 85.4881 12.6034 85.8775 12.6276ZM247.158 12.4582C247.158 12.3977 247.188 12.3372 247.188 12.2767C246.619 12.2767 246.05 12.2767 245.481 12.2767C245.481 12.313 245.481 12.3493 245.451 12.3735C246.05 12.4098 246.619 12.434 247.158 12.4582ZM150.132 12.4219C150.132 12.4703 150.102 12.5187 150.102 12.5671C150.492 12.5792 150.911 12.6034 151.3 12.6155C151.3 12.5671 151.33 12.5066 151.33 12.4582C150.941 12.4461 150.522 12.434 150.132 12.4219ZM38.4878 5.6084C38.1583 5.54789 37.9486 5.47528 37.7089 5.47528C37.5891 5.47528 37.4393 5.5721 37.3195 5.62051C37.5292 5.68102 37.679 5.76573 37.9186 5.78994C38.0085 5.80204 38.2182 5.70522 38.4878 5.6084ZM68.024 5.54789C67.8442 5.51159 67.6945 5.48738 67.5147 5.45108C67.3949 5.64471 67.2751 5.83834 67.1553 6.01988C67.2451 6.03198 67.335 6.04408 67.4249 6.05618C67.6345 5.88675 67.8442 5.71732 68.024 5.54789ZM145.1 6.57657C145.309 6.47975 145.519 6.41924 145.609 6.33453C145.639 6.29822 145.429 6.22561 145.309 6.1651C145.1 6.23771 144.89 6.31033 144.68 6.38294C144.8 6.43135 144.92 6.49186 145.1 6.57657ZM34.6235 13.7652C34.6235 13.8257 34.6235 13.8983 34.6235 13.9588C35.1627 13.9225 35.6719 13.8741 36.2111 13.8378C36.1812 13.8015 36.1812 13.7531 36.1512 13.7168C35.6719 13.7289 35.1327 13.7531 34.6235 13.7652ZM164.391 14.5397C164.211 14.5155 164.062 14.4913 163.882 14.4671C163.762 14.6003 163.672 14.7213 163.552 14.8544C163.732 14.8786 164.091 14.9149 164.091 14.9028C164.241 14.7939 164.331 14.6608 164.391 14.5397ZM309.646 7.3269C309.975 7.38741 310.185 7.44792 310.424 7.44792C310.544 7.44792 310.694 7.36321 310.844 7.3027C310.604 7.24219 310.365 7.16957 310.095 7.13327C310.035 7.13327 309.855 7.23008 309.646 7.3269ZM322.646 16.3672C322.616 16.3188 322.616 16.2703 322.586 16.2219C322.287 16.234 321.957 16.234 321.658 16.2703C321.628 16.2703 321.658 16.4035 321.658 16.4761C321.987 16.4398 322.317 16.4035 322.646 16.3672ZM209.414 8.57342C209.175 8.4887 208.995 8.41609 208.785 8.39188C208.665 8.36768 208.486 8.44029 208.336 8.4766C208.516 8.56131 208.695 8.65813 208.905 8.73074C208.905 8.74285 209.145 8.65813 209.414 8.57342ZM251.502 8.4645C251.442 8.52501 251.382 8.57342 251.352 8.63393C251.742 8.69444 252.161 8.75495 252.55 8.81546C252.61 8.76705 252.64 8.71864 252.7 8.67023C252.311 8.59762 251.891 8.53711 251.502 8.4645ZM244.942 8.75495C244.762 8.83966 244.582 8.91228 244.522 8.99699C244.492 9.02119 244.822 9.14221 244.852 9.13011C245.061 9.0696 245.271 8.98489 245.481 8.91228C245.301 8.87597 245.181 8.82756 244.942 8.75495ZM87.3753 13.5958C87.1656 13.5353 87.0158 13.4506 86.866 13.4627C86.7162 13.4627 86.5964 13.5595 86.4466 13.6079C86.6264 13.6684 86.7762 13.741 86.9858 13.7773C87.0458 13.7773 87.2255 13.6684 87.3753 13.5958ZM157.471 9.48107C157.501 9.43266 157.561 9.39636 157.591 9.34795C157.292 9.31164 157.022 9.27534 156.722 9.25113C156.692 9.25113 156.603 9.33585 156.573 9.37215C156.872 9.40846 157.172 9.44477 157.471 9.48107ZM208.156 11.7926C207.976 11.7805 207.827 11.7563 207.647 11.7442C207.587 11.8894 207.527 12.0346 207.467 12.1798C207.587 12.1919 207.677 12.204 207.797 12.2161C207.917 12.0709 208.036 11.9257 208.156 11.7926ZM69.8512 12.7486C70.001 12.555 70.1209 12.4582 70.1209 12.3493C70.1209 12.3009 69.8512 12.1798 69.7913 12.1919C69.5816 12.2282 69.372 12.2888 69.2222 12.3614C69.1922 12.3735 69.4019 12.4824 69.8512 12.7486ZM114.695 10.9212C114.575 10.9696 114.455 11.0059 114.335 11.0543C114.425 11.0907 114.545 11.1512 114.605 11.1512C114.755 11.1391 114.904 11.0785 115.054 11.0422C114.934 11.0059 114.845 10.9817 114.695 10.9212ZM108.883 3.2485C108.853 3.2848 108.853 3.32111 108.823 3.35741C109.183 3.39372 109.572 3.44213 109.962 3.47844C109.992 3.43003 110.022 3.39372 110.052 3.34531C109.632 3.32111 109.273 3.2848 108.883 3.2485ZM170.532 3.09117C170.262 2.94594 170.143 2.84913 169.963 2.81282C169.843 2.78862 169.483 2.83702 169.483 2.86123C169.483 2.94594 169.513 3.06696 169.633 3.11537C169.783 3.15168 170.083 3.10327 170.532 3.09117ZM160.137 7.24219C159.958 7.3148 159.868 7.36321 159.748 7.42372C159.928 7.46002 160.077 7.49633 160.257 7.50843C160.347 7.50843 160.467 7.44792 160.557 7.42372C160.437 7.37531 160.317 7.3148 160.137 7.24219ZM133.986 7.43582C133.986 7.38741 134.016 7.35111 134.016 7.3027C133.657 7.3027 133.297 7.3027 132.938 7.3027C132.938 7.3269 132.938 7.35111 132.938 7.37531C133.297 7.38741 133.627 7.41162 133.986 7.43582ZM48.6128 7.08486C48.5828 7.13327 48.5828 7.18168 48.5528 7.23008C48.8524 7.24219 49.152 7.26639 49.4815 7.27849C49.5114 7.23008 49.5114 7.18168 49.5414 7.13327C49.2119 7.12117 48.9123 7.10906 48.6128 7.08486ZM98.4888 6.27402C98.1892 6.1651 98.0694 6.09249 97.9196 6.09249C97.7399 6.08039 97.5602 6.1409 97.3804 6.1651C97.4403 6.22561 97.5002 6.34663 97.5602 6.34663C97.7998 6.34663 98.0395 6.31033 98.4888 6.27402ZM207.647 13.6079C207.617 13.6563 207.557 13.7047 207.527 13.741C207.797 13.7894 208.096 13.8499 208.366 13.8983C208.426 13.8378 208.516 13.7652 208.576 13.7047C208.246 13.6684 207.946 13.6442 207.647 13.6079ZM189.314 5.16063C189.344 5.10012 189.344 5.03961 189.374 4.9791C189.074 4.9791 188.775 4.9791 188.505 4.9791C188.505 5.0154 188.475 5.05171 188.475 5.08801C188.745 5.11222 189.015 5.13642 189.314 5.16063ZM77.0106 2.80072C77.0106 2.72811 76.9807 2.65549 76.9807 2.58288C76.6212 2.61919 76.2917 2.64339 75.9322 2.6797C75.9622 2.72811 75.9622 2.77651 75.9921 2.82492C76.3217 2.82492 76.6811 2.81282 77.0106 2.80072ZM137.97 10.0015C137.82 10.1225 137.671 10.2072 137.641 10.304C137.641 10.3403 137.88 10.4008 138 10.4492C138.15 10.3524 138.33 10.2556 138.45 10.1588C138.479 10.1467 138.21 10.0741 137.97 10.0015ZM297.693 18.0615C297.813 17.9767 297.903 17.9283 297.993 17.8678C297.873 17.8436 297.753 17.7952 297.663 17.7952C297.514 17.8073 297.364 17.8678 297.214 17.9041C297.334 17.9404 297.484 17.9888 297.693 18.0615ZM98.6685 3.80519C98.6685 3.8657 98.6386 3.92621 98.6386 3.98672C98.9381 3.98672 99.2676 3.98672 99.5672 3.98672C99.5672 3.95042 99.5971 3.91411 99.5971 3.8778C99.2976 3.8415 98.9681 3.81729 98.6685 3.80519ZM293.02 18.4608C292.87 18.5334 292.661 18.5818 292.661 18.6303C292.661 18.6908 292.871 18.7392 292.96 18.7997C293.11 18.7392 293.29 18.6787 293.44 18.6182C293.32 18.5818 293.2 18.5334 293.02 18.4608ZM110.621 6.26192C110.621 6.32243 110.651 6.38294 110.651 6.44345C111.01 6.41924 111.34 6.39504 111.699 6.37084C111.699 6.33453 111.669 6.29822 111.669 6.26192C111.31 6.26192 110.98 6.26192 110.621 6.26192ZM138.749 7.41162C138.599 7.36321 138.479 7.3027 138.42 7.3027C138.27 7.339 138.15 7.38741 138.03 7.43582C138.12 7.46002 138.24 7.52053 138.3 7.52053C138.45 7.50843 138.599 7.46002 138.749 7.41162ZM235.835 12.6034C235.955 12.4824 236.075 12.3977 236.075 12.3251C236.045 12.2646 235.835 12.1798 235.685 12.1798C235.536 12.1798 235.386 12.2646 235.236 12.313C235.356 12.3856 235.476 12.434 235.835 12.6034ZM276.005 12.4219C275.916 12.3614 275.826 12.2767 275.796 12.2888C275.616 12.3009 275.466 12.3372 275.317 12.3735C275.376 12.4098 275.436 12.4824 275.496 12.4824C275.646 12.4703 275.826 12.434 276.005 12.4219ZM168.405 12.8576C168.106 12.8091 167.926 12.7728 167.776 12.7728C167.656 12.7728 167.566 12.8213 167.447 12.8576C167.566 12.906 167.686 12.9907 167.806 13.0028C167.956 12.9907 168.135 12.9302 168.405 12.8576ZM321.238 9.32375C321.119 9.26324 321.059 9.23903 320.969 9.20273C320.849 9.25113 320.699 9.29954 320.579 9.34795C320.579 9.36005 320.759 9.45687 320.789 9.44477C320.939 9.40846 321.089 9.36005 321.238 9.32375ZM108.764 13.5232C108.494 13.4264 108.344 13.3295 108.254 13.3416C108.045 13.3658 107.865 13.4385 107.655 13.4869C107.775 13.5353 107.895 13.6321 108.015 13.6321C108.224 13.6321 108.434 13.5837 108.764 13.5232ZM145.16 13.5716C144.98 13.5353 144.83 13.4869 144.65 13.4748C144.59 13.4748 144.471 13.5353 144.381 13.5595C144.531 13.5958 144.65 13.6563 144.8 13.6684C144.89 13.6805 145.01 13.62 145.16 13.5716ZM152.858 13.9831C152.648 13.7894 152.648 13.6926 152.529 13.6563C152.349 13.62 152.109 13.6442 151.9 13.6321C151.87 13.6684 151.87 13.7047 151.84 13.741C152.079 13.8136 152.319 13.862 152.858 13.9831ZM60.595 14.6003C60.5351 14.5397 60.5351 14.455 60.4752 14.455C60.2954 14.4429 60.1157 14.455 59.9659 14.4671C59.9959 14.5276 60.0258 14.6245 60.1157 14.6366C60.2355 14.6487 60.4152 14.6245 60.595 14.6003ZM133.776 14.9391C133.387 14.8544 133.177 14.7818 132.968 14.7697C132.878 14.7576 132.758 14.8665 132.638 14.9149C132.788 14.9633 132.938 15.0359 133.087 15.0601C133.237 15.0601 133.417 14.9996 133.776 14.9391ZM120.237 10.1951C120.446 10.1104 120.596 10.0499 120.686 9.98936C120.716 9.96516 120.416 9.85624 120.356 9.86834C120.177 9.89254 119.997 9.95305 119.937 10.0257C119.907 10.0499 120.117 10.1104 120.237 10.1951ZM52.2973 9.81993C52.0576 9.97726 51.9378 10.0378 51.9079 10.0983C51.9079 10.1104 52.1176 10.183 52.2074 10.183C52.3572 10.1709 52.6268 10.1225 52.6268 10.0862C52.5968 10.0015 52.4471 9.94095 52.2973 9.81993ZM256.325 15.9194C256.175 15.871 256.055 15.7984 256.025 15.8105C255.875 15.8347 255.726 15.8831 255.576 15.9315C255.666 15.9678 255.756 16.0283 255.815 16.0162C255.995 16.0041 256.145 15.9557 256.325 15.9194ZM128.684 10.0741C128.534 10.1588 128.414 10.2072 128.384 10.2677C128.384 10.2798 128.564 10.3645 128.654 10.3524C128.804 10.3403 128.954 10.2919 129.103 10.2677C128.984 10.2072 128.864 10.1588 128.684 10.0741ZM232.21 10.4855C231.941 10.4371 231.761 10.3645 231.611 10.3766C231.492 10.3766 231.372 10.4734 231.282 10.5219C231.432 10.5703 231.581 10.6308 231.761 10.6429C231.881 10.6429 232.001 10.5582 232.21 10.4855ZM195.245 2.31663C195.305 2.36504 195.365 2.41345 195.455 2.46186C195.755 2.36504 196.024 2.28033 196.324 2.18351C196.264 2.14721 196.204 2.123 196.144 2.0867C195.844 2.15931 195.545 2.24402 195.245 2.31663ZM32.7363 2.36504C32.4367 2.31663 32.257 2.28033 32.1072 2.28033C32.0174 2.28033 31.9275 2.34084 31.8077 2.37715C31.9275 2.42555 32.0473 2.49817 32.1671 2.51027C32.287 2.51027 32.4367 2.43766 32.7363 2.36504ZM80.126 2.30453C80.156 2.35294 80.1859 2.38925 80.1859 2.43766C80.4855 2.41345 80.785 2.38925 81.1145 2.36504C81.0846 2.31663 81.0846 2.28033 81.0546 2.23192C80.7551 2.25612 80.4555 2.28033 80.126 2.30453ZM117.001 2.89754C116.732 2.88543 116.552 2.86123 116.402 2.87333C116.312 2.88543 116.193 2.97015 116.193 2.98225C116.282 3.03066 116.462 3.10327 116.552 3.09117C116.732 3.06696 116.822 2.99435 117.001 2.89754ZM30.6095 3.11537C30.6095 3.15168 30.6095 3.18799 30.5795 3.23639C30.939 3.2485 31.2685 3.2606 31.6279 3.2727C31.6279 3.22429 31.6579 3.16378 31.6579 3.11537C31.2984 3.11537 30.9689 3.11537 30.6095 3.11537ZM102.623 4.45871C102.653 4.39819 102.653 4.33768 102.683 4.27717C102.353 4.27717 102.024 4.27717 101.694 4.27717C101.694 4.31348 101.664 4.36189 101.664 4.39819C101.964 4.4103 102.293 4.4345 102.623 4.45871ZM123.262 10.7639C123.172 10.8244 123.052 10.8849 123.082 10.9091C123.142 10.9454 123.292 10.9817 123.412 10.9938C123.502 10.9938 123.592 10.9454 123.681 10.9212C123.532 10.8607 123.412 10.8123 123.262 10.7639ZM100.586 11.1996C100.436 11.1512 100.286 11.0907 100.286 11.0907C100.136 11.1391 100.017 11.1996 99.8967 11.248C99.9866 11.2722 100.106 11.3448 100.166 11.3327C100.316 11.2964 100.436 11.248 100.586 11.1996ZM186.948 12.6881C186.828 12.676 186.708 12.6639 186.588 12.6397C186.588 12.6881 186.558 12.7365 186.588 12.7728C186.588 12.7849 186.738 12.797 186.768 12.797C186.828 12.7607 186.888 12.7244 186.948 12.6881ZM29.3214 13.5595C29.2315 13.5837 29.0817 13.5958 29.0518 13.62C29.0218 13.6563 29.1117 13.7047 29.1716 13.741C29.2615 13.7168 29.4112 13.7047 29.4412 13.6805C29.4412 13.6442 29.3513 13.5958 29.3214 13.5595ZM68.4433 13.4748C68.3235 13.5232 68.2337 13.5837 68.1138 13.6442C68.2337 13.6684 68.3834 13.7289 68.4433 13.7168C68.5931 13.6926 68.7129 13.6321 68.8328 13.5837C68.7429 13.5353 68.6231 13.5111 68.4433 13.4748ZM255.546 14.3703C255.456 14.3945 255.306 14.4066 255.276 14.4308C255.246 14.4671 255.336 14.5155 255.396 14.5519C255.486 14.5276 255.636 14.5155 255.666 14.4913C255.666 14.4671 255.576 14.4187 255.546 14.3703ZM274.118 15.5563C274.238 15.4958 274.388 15.4353 274.358 15.4111C274.268 15.3506 274.148 15.3022 274.028 15.2538C273.969 15.2901 273.819 15.3385 273.849 15.3748C273.849 15.4353 273.999 15.4958 274.118 15.5563ZM338.852 16.0162C338.912 16.0525 338.972 16.0767 339.032 16.113C339.242 16.0525 339.451 15.9799 339.691 15.9194C339.631 15.8831 339.571 15.8468 339.481 15.8105C339.272 15.8831 339.062 15.9557 338.852 16.0162ZM233.618 16.4035C233.678 16.3672 233.768 16.3309 233.798 16.2824C233.798 16.2703 233.708 16.2219 233.708 16.2219C233.618 16.234 233.499 16.2703 233.409 16.2824C233.469 16.3309 233.529 16.3672 233.618 16.4035ZM338.163 16.6455C338.103 16.6092 338.073 16.5366 337.984 16.5245C337.894 16.5124 337.744 16.5487 337.654 16.5729C337.744 16.6334 337.804 16.6818 337.894 16.7423C337.984 16.706 338.073 16.6818 338.163 16.6455ZM240.808 16.8149C240.688 16.7665 240.628 16.7302 240.538 16.6939C240.418 16.7423 240.298 16.7907 240.209 16.8512C240.179 16.8633 240.388 16.9481 240.388 16.9481C240.538 16.9118 240.658 16.8633 240.808 16.8149ZM58.1686 4.70075C58.3184 4.66444 58.4681 4.62813 58.6179 4.59183C58.558 4.55552 58.4382 4.48291 58.4082 4.48291C58.2285 4.50711 58.0787 4.54342 57.9289 4.57973C57.9888 4.61603 58.0488 4.65234 58.1686 4.70075ZM83.0617 4.73705C83.1815 4.78546 83.2713 4.85807 83.3013 4.85807C83.4511 4.84597 83.6009 4.80967 83.7806 4.77336C83.7207 4.73705 83.6308 4.66444 83.5709 4.67654C83.4211 4.67654 83.2414 4.71285 83.0617 4.73705ZM158.999 5.03961C158.999 4.9912 158.969 4.94279 158.969 4.88228C158.67 4.90648 158.4 4.91858 158.1 4.94279C158.1 4.9791 158.13 5.0033 158.13 5.03961C158.4 5.03961 158.699 5.03961 158.999 5.03961ZM192.31 2.43766C192.25 2.40135 192.19 2.34084 192.1 2.34084C191.98 2.34084 191.86 2.37715 191.74 2.40135C191.8 2.43766 191.86 2.49817 191.92 2.49817C192.07 2.49817 192.19 2.46186 192.31 2.43766ZM89.0228 3.49054C88.903 3.43003 88.7832 3.35741 88.7832 3.35741C88.6334 3.38162 88.5136 3.43003 88.3638 3.46633C88.4237 3.50264 88.5136 3.57525 88.5735 3.57525C88.7233 3.56315 88.873 3.52684 89.0228 3.49054ZM290.414 7.08486C290.204 7.06066 290.025 7.03645 289.845 7.01225C289.815 7.06066 289.725 7.12117 289.785 7.14537C289.875 7.18168 290.025 7.20588 290.145 7.20588C290.204 7.19378 290.294 7.14537 290.414 7.08486ZM125.928 1.68733C126.048 1.60261 126.138 1.5421 126.198 1.48159C126.198 1.46949 125.988 1.39688 125.898 1.40898C125.748 1.42108 125.629 1.48159 125.479 1.5179C125.599 1.56631 125.718 1.61471 125.928 1.68733ZM173.438 7.48423C173.408 7.52053 173.378 7.56894 173.378 7.60525C173.378 7.61735 173.498 7.64156 173.527 7.62945C173.617 7.60525 173.677 7.56894 173.767 7.53264C173.647 7.52053 173.557 7.50843 173.438 7.48423ZM325.971 7.42372C325.971 7.47213 325.971 7.52053 325.971 7.56894C326.241 7.58105 326.481 7.59315 326.75 7.61735C326.78 7.58105 326.78 7.53264 326.81 7.49633C326.511 7.46002 326.241 7.44792 325.971 7.42372ZM52.2973 3.67207C52.1775 3.78099 52.0576 3.8415 52.0576 3.90201C52.0576 3.93832 52.2074 3.98672 52.2673 4.02303C52.3872 3.98672 52.6268 3.93832 52.6268 3.90201C52.6568 3.8415 52.477 3.78099 52.2973 3.67207ZM134.376 8.64603C134.346 8.69444 134.316 8.73074 134.286 8.77915C134.555 8.81546 134.855 8.83966 135.124 8.87597C135.154 8.83966 135.184 8.79125 135.214 8.75495C134.945 8.70654 134.645 8.68234 134.376 8.64603ZM230.773 8.85176C230.773 8.81546 230.773 8.79125 230.773 8.75495C230.473 8.76705 230.144 8.76705 229.844 8.77915C229.844 8.80336 229.844 8.82756 229.844 8.85176C230.144 8.85176 230.473 8.85176 230.773 8.85176ZM118.859 9.13011C118.709 9.08171 118.589 9.00909 118.529 9.02119C118.379 9.0575 118.259 9.10591 118.14 9.15432C118.229 9.19062 118.349 9.25113 118.379 9.23903C118.589 9.21483 118.709 9.16642 118.859 9.13011ZM234.158 9.08171C233.978 9.0575 233.798 9.0454 233.648 9.0333C233.648 9.08171 233.588 9.14222 233.648 9.16642C233.708 9.20273 233.858 9.21483 233.978 9.21483C234.038 9.20273 234.068 9.14221 234.158 9.08171ZM162.025 1.74784C162.174 1.68733 162.354 1.62682 162.504 1.56631C162.474 1.5179 162.444 1.43318 162.384 1.43318C162.204 1.42108 161.995 1.44528 161.815 1.45739C161.875 1.56631 161.935 1.66312 162.025 1.74784ZM242.455 9.09381C242.485 9.13011 242.515 9.15432 242.545 9.19062C242.815 9.15432 243.084 9.11801 243.354 9.09381C243.324 9.0575 243.294 9.02119 243.264 8.98489C242.994 9.02119 242.725 9.0575 242.455 9.09381ZM101.574 9.55369C101.514 9.51738 101.424 9.45687 101.365 9.45687C101.275 9.45687 101.155 9.50528 101.065 9.52948C101.125 9.56579 101.215 9.6263 101.275 9.6263C101.365 9.6263 101.484 9.57789 101.574 9.55369ZM202.644 3.8778C202.554 3.8536 202.435 3.8294 202.345 3.80519C202.315 3.8415 202.255 3.88991 202.225 3.92621C202.225 3.93832 202.345 3.96252 202.375 3.96252C202.495 3.95042 202.554 3.91411 202.644 3.8778ZM330.615 9.91675C330.734 9.85624 330.884 9.79573 330.884 9.78363C330.764 9.72311 330.615 9.67471 330.465 9.6263C330.405 9.66261 330.285 9.72311 330.315 9.74732C330.375 9.80783 330.495 9.85624 330.615 9.91675ZM335.707 17.4927C335.647 17.529 335.587 17.5653 335.557 17.6016C335.797 17.65 336.007 17.7105 336.246 17.7589C336.306 17.7226 336.366 17.6863 336.426 17.65C336.156 17.5895 335.947 17.5411 335.707 17.4927ZM56.1016 2.36504C56.1016 2.30453 56.1016 2.25612 56.0717 2.19561C55.7721 2.23192 55.4426 2.26823 55.1431 2.31663C55.173 2.35294 55.203 2.38925 55.203 2.42555C55.5325 2.40135 55.8021 2.38925 56.1016 2.36504Z" fill="#FF9E44"/>
<path d="M279.841 19.5385C279.721 19.6717 279.631 19.7927 279.481 19.9258C279.481 19.9379 279.152 19.8895 279.002 19.8653C279.122 19.7322 279.212 19.6112 279.331 19.478C279.511 19.5022 279.661 19.5143 279.841 19.5385Z" fill="#FF9E44"/>
<path d="M20.0063 30.6251C19.9164 30.7461 19.8265 30.8792 19.7367 31.0002C19.6168 30.9881 19.497 30.976 19.3772 30.9518C19.4671 30.8308 19.5569 30.6977 19.6468 30.5767C19.7666 30.6009 19.8864 30.613 20.0063 30.6251Z" fill="#FF9E44"/>
<path d="M87.7361 0.454226C87.5264 0.563145 87.3466 0.672064 87.2867 0.659962C87.0171 0.623656 86.7775 0.551043 86.5378 0.490533C86.6876 0.442124 86.8074 0.345308 86.9572 0.345308C87.1669 0.333206 87.4066 0.393716 87.7361 0.454226Z" fill="#FF9E44"/>
<path d="M317.646 21.0625C317.946 21.0625 318.245 21.0625 318.515 21.0625C318.515 21.1351 318.515 21.2561 318.485 21.2561C318.215 21.2682 317.916 21.2682 317.616 21.2682C317.646 21.1956 317.646 21.1351 317.646 21.0625Z" fill="#FF9E44"/>
<path d="M125.151 1.09614C125.031 0.926713 124.911 0.757284 124.731 0.527344C126.109 0.696773 125.331 0.902509 125.121 1.08404L125.151 1.09614Z" fill="#FF9E44"/>
<path d="M287.99 19.188C287.93 19.2364 287.84 19.309 287.78 19.309C287.63 19.2969 287.51 19.2606 287.361 19.2243C287.45 19.188 287.54 19.1395 287.66 19.1274C287.75 19.1274 287.87 19.1637 287.99 19.188Z" fill="#FF9E44"/>
<path d="M245.452 0.248047C245.602 0.284353 245.752 0.308557 245.782 0.344864C245.812 0.38117 245.752 0.453782 245.662 0.477987C245.602 0.502191 245.452 0.477987 245.333 0.465885C245.392 0.405374 245.422 0.332762 245.452 0.248047Z" fill="#FF9E44"/>
</svg>
