<svg width="333" height="10" viewBox="0 0 333 10" fill="none" xmlns="http://www.w3.org/2000/svg">
<path d="M156.733 6.47258C156.385 6.74329 156.037 7.0058 155.632 7.31752C155.4 7.15346 155.168 6.9976 154.879 6.80892C153.169 6.98119 151.692 6.84173 150.359 6.46438C149.49 7.014 148.157 7.34213 146.1 7.36674C145.695 7.37495 145.202 7.39135 144.942 7.33393C142.943 6.91556 140.451 7.2519 138.394 6.97299C138.278 6.95658 138.104 6.95658 138.018 6.97299C137.033 7.12885 136.163 6.9976 135.178 6.94838C133.904 6.88275 133.846 6.55462 132.832 6.42337C131.499 6.71048 131.122 7.10424 131.557 7.60464C131.007 7.61284 130.572 7.62105 130.022 7.63745C130.108 7.44057 130.166 7.29291 130.282 6.9976C128.834 7.45698 127.588 7.16987 126.139 7.16987C126.371 6.97299 126.516 6.82533 126.748 6.64485C125.444 6.53821 124.314 6.63665 122.982 6.7597C123.619 6.98939 125.473 6.71048 124.981 7.23549C120.432 7.23549 115.884 7.23549 111.219 7.23549C111.075 7.48159 110.988 7.64566 110.843 7.87535C109.278 7.62925 110.061 7.17807 109.423 6.85814C108.12 6.84994 106.729 6.77611 105.309 7.13705C106.7 7.13705 107.772 7.13705 108.815 7.13705C108.873 7.19447 108.931 7.21908 108.931 7.23549C107.656 7.98199 107.656 7.97379 105.078 7.53081C104.614 7.44878 104.035 7.41596 103.108 7.32573C103.368 7.53081 103.484 7.62105 103.6 7.71948C102.267 8.04762 102.123 8.03941 101.138 7.45698C99.3413 7.40776 98.1825 7.57183 96.9078 8.09684C96.7629 7.94918 96.676 7.84253 96.5312 7.66206C94.735 7.66206 92.8808 7.66206 90.5921 7.66206C91.2874 7.80152 91.693 7.88355 92.1565 7.97379C91.9827 8.03121 91.8668 8.10504 91.751 8.09684C90.7659 8.07223 89.723 8.07223 88.8249 7.99019C87.9558 7.90816 87.2025 7.84253 86.3334 7.96558C86.2175 7.98199 86.0147 8.0066 85.9568 7.99019C84.7979 7.70308 83.5522 7.94918 82.3933 7.91636C81.2345 7.88355 80.713 8.02301 80.1336 8.30192C79.699 8.10504 79.3514 7.94918 79.0037 7.78511C79.4673 7.64566 79.8729 7.53081 80.2495 7.40776C78.8299 7.02221 77.8449 7.0058 76.8599 7.32573C78.6851 7.84253 78.6851 7.84253 78.3084 8.28551C77.5552 8.17887 76.8019 8.0066 76.0777 8.0148C75.4113 8.02301 74.803 8.23629 73.9338 8.40036C73.4124 8.38395 72.6012 8.36755 71.79 8.34293C71.761 8.31012 71.761 8.27731 71.732 8.2445C72.5432 8.11324 73.3544 7.97379 74.1366 7.84253C74.1077 7.80972 74.0787 7.78511 74.0497 7.7523C73.731 7.7605 73.3834 7.7605 73.0647 7.7687C72.2245 7.80152 71.3844 7.86714 70.5442 7.85894C68.6901 7.85074 68.1396 7.96558 67.7051 8.53981C67.0967 8.53981 66.4883 8.53981 65.7351 8.53981C65.6771 8.38395 65.6481 8.2527 65.5902 8.11324C64.3734 8.12965 64.779 8.42497 64.4024 8.57263C63.0697 8.70388 61.795 8.69568 60.4044 8.59724C59.5353 8.53981 58.4923 8.67107 57.5073 8.70388C55.7401 8.7613 53.9729 8.84334 52.2056 8.85974C51.1916 8.86795 50.1487 8.76951 48.9319 8.71208C47.9759 9.04842 46.3535 8.94998 44.876 8.96638C43.6302 8.98279 42.3555 8.97459 41.1098 8.97459C40.5883 8.97459 40.0668 8.97459 39.5453 8.95818C37.5174 8.90076 35.4604 8.80232 33.4325 8.79412C32.2157 8.78591 30.941 8.88435 29.7821 9.0074C28.4784 9.14686 27.2617 9.19608 25.929 9.04021C24.9729 8.92537 23.901 8.88435 22.7712 8.80232C22.4814 9.0074 22.2207 9.19608 21.8731 9.44218C20.8301 9.44218 19.7002 9.47499 18.5993 9.43397C17.3826 9.38475 16.3396 9.38475 15.7602 9.85234C14.4855 9.05662 12.5444 9.65546 10.8931 9.52421C10.6903 9.64726 10.4875 9.7621 10.2267 9.90976C8.92305 9.92617 7.56141 9.95898 6.19978 9.95898C4.69329 9.95898 4.40358 9.77031 5.04094 9.36014C5.24374 9.22889 5.33065 9.06482 5.21477 8.92537C4.95403 8.58083 4.63535 8.22809 4.20079 7.89996C3.79519 7.61284 3.3896 7.38315 4.2877 7.07963C4.7802 6.91556 4.57741 6.64485 3.73725 6.49719C2.52047 6.27571 1.33266 6.04601 0 5.79992C0.347651 5.68507 0.521477 5.58663 0.811186 5.52921C1.47752 5.38155 1.70929 5.23389 0.898099 5.08623C0.0579419 4.93037 0.376622 4.73349 0.463535 4.52841C0.521477 4.38895 0.782215 4.20848 0.579419 4.11004C-0.115884 3.7573 0.173826 3.43737 0.550448 3.09283C1.04295 2.63345 1.33266 2.15766 1.73826 1.64085C4.983 1.5096 8.19878 1.24709 11.5015 1.5178C11.936 1.55061 12.3996 1.53421 12.8631 1.526C13.3266 1.5178 13.8771 1.44397 14.2247 1.48499C15.7602 1.69827 17.3536 1.37834 18.889 1.55882C19.1788 1.59163 19.7002 1.53421 19.9899 1.46858C21.0039 1.2717 22.1048 1.29631 23.4085 1.30451C23.2057 1.49319 23.0319 1.63264 22.7712 1.82132C23.5244 1.82132 24.0748 1.82132 24.6543 1.82132C24.8571 1.92796 25.0888 2.03461 25.2916 2.14125C25.8421 2.09203 26.3346 2.05922 26.7981 1.99359C27.1168 1.95257 27.6383 1.86234 27.6093 1.80491C27.5514 1.69827 27.2906 1.55061 26.9719 1.50139C26.4215 1.41936 25.7262 1.38655 24.886 1.32092C25.958 1.06662 27.0878 1.11584 27.928 1.20607C29.1737 1.33733 30.1587 1.2717 31.3176 1.17326C32.2447 1.09123 33.3745 1.19787 34.4175 1.21428C34.852 1.22248 35.4025 1.28811 35.7212 1.23889C37.4015 0.984585 39.1397 0.918958 41.0518 0.992788C41.9499 1.0256 42.877 0.927162 43.8041 0.910755C45.1077 0.894349 46.4404 0.877942 47.7441 0.902552C48.2076 0.910755 48.6712 1.0338 49.2796 1.12404C49.859 0.804112 51.0468 0.804112 52.3505 0.861535C52.872 0.886145 53.3934 0.853332 53.9149 0.853332C55.3055 0.853332 56.6961 0.853332 58.0867 0.853332C59.2745 0.853332 60.4623 0.836926 61.6212 0.828722C61.8819 0.828722 62.1427 0.779503 62.4034 0.787706C65.4453 0.836926 68.3714 0.582624 71.4423 0.615437C75.1796 0.656453 78.9168 0.615437 82.6251 0.590827C83.6101 0.582624 84.5662 0.492387 85.5512 0.443168C86.0147 0.418558 86.4493 0.410355 86.9418 0.393948C87.3763 0.681063 87.9847 0.869739 89.3174 0.812316C89.2305 0.67286 89.1725 0.541607 89.0567 0.377541C90.1286 0.377541 91.2005 0.311915 92.1276 0.393948C93.0836 0.475981 93.8079 0.541607 94.706 0.344728C95.0826 0.262695 95.7779 0.295508 96.5022 0.279102C96.4442 0.508794 96.3863 0.656453 96.2994 0.894349C97.661 0.270899 98.5591 0.139646 100.008 0.303712C101.224 0.443168 101.34 0.541607 100.964 1.23068C102.789 1.0338 101.63 0.508794 102.528 0.229882C104.759 0.246289 104.759 0.246289 105.425 0.787706C105.86 0.631843 106.236 0.492387 106.642 0.336525C108.177 0.336525 109.742 0.336525 111.306 0.336525C111.509 0.336525 111.712 0.336525 111.886 0.328322C113.508 0.238085 113.508 0.238085 114.696 0.385745C115.391 0.311915 116.116 0.205272 116.869 0.156053C117.303 0.131443 117.796 0.197069 118.259 0.221679C118.288 0.221679 118.346 0.270899 118.346 0.270899C119.013 0.221679 119.592 0.0740197 120.287 0.311915C120.867 0.508794 121.852 0.492387 122.721 0.393948C123.445 0.311915 124.198 0.221679 124.894 0.123239C126.4 -0.0900461 127.733 0.0904263 128.515 0.205272C130.137 0.180662 131.209 0.172459 132.281 0.156053C131.354 0.361135 131.818 0.516997 132.571 0.607233C133.15 0.67286 133.817 0.681063 134.483 0.713876C134.918 0.451371 134.686 0.303712 133.701 0.303712C133.121 0.303712 132.513 0.385745 132.223 0.156053C132.658 0.123239 133.121 0.082223 133.585 0.0494098C135.236 -0.0490296 135.352 -0.0326231 136.192 0.402151C136.279 0.443168 136.453 0.475981 136.685 0.533404C137.264 0.0247999 138.597 -0.0408264 140.161 0.0248C141.291 0.0658164 142.421 0.0658164 143.522 0.106833C143.986 0.123239 144.42 0.205272 145.057 0.287305C146.216 0.139646 147.578 0.0248 149.171 0.197069C150.012 0.287305 150.997 0.377541 152.068 0.246289C152.909 0.147849 154.038 -0.0162165 154.502 0.402151C156.936 0.0576131 159.224 0.0247999 161.629 0.172459C162.846 0.221679 164.004 0.205272 165.134 0.213476C166.264 0.221679 167.307 0.262695 167.452 0.746689C168.727 0.156053 170.465 0.238085 172.232 0.295508C172.928 0.320118 173.652 0.311915 174.347 0.287305C175.969 0.238085 177.563 0.246289 179.214 0.320118C181.445 0.418558 183.705 0.508794 185.993 0.533404C188.108 0.558014 190.194 0.443168 192.28 0.475981C193.207 0.492387 194.076 0.631843 195.235 0.730283C196.017 0.541607 197.118 0.459574 198.48 0.664656C199.465 0.812316 200.508 0.894349 201.812 0.763096C203.289 0.607233 204.969 0.57442 206.07 1.04201C206.679 0.918958 207.171 0.738486 207.693 0.738486C208.417 0.730283 209.228 0.828722 209.923 0.927162C210.793 1.05021 211.604 1.20607 212.589 1.37834C212.82 1.22248 212.936 1.13224 213.11 1.00919C214.182 0.927162 215.283 0.877942 216.587 1.0338C217.514 1.14865 218.789 1.00919 219.918 1.00099C220.643 0.992788 221.396 0.976381 222.062 1.0256C223.221 1.12404 224.293 1.2799 225.51 1.11584C226.9 1.41116 228.755 1.00099 230.145 1.36194C230.29 1.40295 230.667 1.39475 230.927 1.38655C235.794 1.22248 240.517 1.40295 245.239 1.71468C245.355 1.72288 245.5 1.71468 245.731 1.71468C245.818 1.59983 245.934 1.48499 246.021 1.36194C246.282 1.35373 246.572 1.32092 246.659 1.34553C248.397 1.83773 250.888 1.56702 252.829 1.83773C255.582 1.69007 258.305 2.07562 261.057 1.87874C261.26 1.86234 261.521 1.83773 261.637 1.86234C263.549 2.21508 265.982 1.86234 267.894 2.23969C268.068 2.2725 268.387 2.2643 268.647 2.25609C270.27 2.20687 271.892 2.14945 273.428 2.09203C274.818 2.66626 274.789 2.64165 277.368 2.46118C278.208 2.40375 279.164 2.49399 280.062 2.5186C280.96 2.54321 281.916 2.61704 282.785 2.58423C284.668 2.5104 286.436 2.54321 288.145 2.82212C288.84 2.93697 289.796 2.92876 290.636 2.93697C293.215 2.96978 295.822 2.96158 298.314 3.17486C299.125 3.24049 299.994 3.28151 300.776 3.38815C302.717 3.65886 304.774 3.5276 306.773 3.55221C307.092 3.55221 307.44 3.56862 307.7 3.60964C309.525 3.90496 311.438 4.0116 313.523 3.85574C313.987 3.94597 314.451 4.05261 315.001 4.12644C315.32 4.16746 315.812 4.19207 316.073 4.15105C316.681 4.06082 317.145 4.05261 317.724 4.16746C317.927 4.20848 318.391 4.20848 318.651 4.17566C319.549 4.06082 320.129 4.11824 320.679 4.34793C320.911 4.44637 321.433 4.56942 321.78 4.56122C323.837 4.48739 325.488 4.86474 327.487 4.91396C329.139 4.94677 331.08 5.04521 332.152 5.52921C332.441 5.66046 333.079 5.81632 332.992 5.92296C332.76 6.18547 332.21 6.43157 331.804 6.67767C329.631 6.68587 329.457 7.2519 328.559 7.62105C328.501 7.64566 328.501 7.69488 328.444 7.7605C328.675 7.82613 328.965 7.89996 329.255 7.96558C330.616 8.2609 330.645 8.62185 329.255 8.91716C328.675 9.04021 328.009 9.12225 327.169 9.2617C327.574 9.31913 327.806 9.36014 328.183 9.41757C327.256 9.64726 326.531 9.93437 325.054 10C324.909 9.80312 324.764 9.63905 324.619 9.46679C323.808 9.44218 323.055 9.40936 322.273 9.40116C322.041 9.40116 321.722 9.44218 321.606 9.4914C321.085 9.71288 320.448 9.71288 319.694 9.62265C319.52 9.60624 319.231 9.58984 319.115 9.62265C317.29 10.041 315.262 9.62265 313.321 9.73749C312.509 9.78671 311.64 9.72109 310.8 9.7457C309.525 9.78671 308.396 9.77851 307.874 9.36014C307.613 9.15506 306.976 9.04842 306.281 9.12225C304.485 9.31913 302.746 9.20428 301.153 9.03201C298.748 9.58163 298.198 9.54882 296.489 8.72029C295.706 8.84334 294.953 8.97459 294.142 9.08943C292.52 9.31913 290.926 9.36835 289.362 9.03201C288.782 8.90076 288.116 8.89256 287.363 8.87615C285.943 8.85154 284.553 8.72849 283.191 8.60544C282.032 8.4988 280.931 8.43317 279.714 8.4988C278.99 8.53981 277.86 8.55622 277.455 8.43317C276.238 8.08043 274.76 8.14606 273.37 8.12965C272.182 8.12145 270.994 7.99019 269.719 8.10504C269.14 8.15426 268.3 7.95738 267.228 7.83433C267.025 7.94918 266.793 8.08043 266.417 8.30192C265.982 8.04762 265.75 7.92457 265.49 7.7687C265.055 7.80152 264.592 7.80972 264.244 7.87535C263.375 8.03941 262.506 8.03941 261.579 7.96558C259.695 7.80152 257.812 7.65386 255.813 7.48159C254.944 7.79331 253.959 7.85074 252.598 7.64566C251.902 7.53901 250.83 7.62925 249.932 7.63745C249.816 7.63745 249.672 7.69488 249.585 7.68667C247.962 7.44878 246.253 7.77691 244.573 7.62925C243.646 7.54722 242.747 7.5062 242.4 7.15346C242.052 7.32573 241.705 7.498 241.328 7.69488C239.213 7.80972 237.243 7.48979 234.954 7.47339C235.215 7.2519 235.389 7.08783 235.65 6.87455C235.273 6.90736 234.838 6.89916 234.751 6.94838C233.969 7.31752 232.637 7.30932 231.391 7.32573C229.884 7.34213 228.378 7.21908 226.9 7.39956C226.698 7.41596 226.379 7.38315 226.147 7.35854C224.612 7.21088 223.076 7.05502 221.541 6.89916C220.382 7.43237 220.15 7.46518 218.18 7.2683C216.79 7.12885 215.573 7.21088 214.356 7.46518C213.805 7.37495 213.255 7.27651 212.676 7.17807C211.864 7.20268 211.024 7.2601 210.184 7.2519C209.75 7.24369 209.112 7.15346 208.938 7.04682C208.417 6.7515 207.432 6.71868 206.157 6.53821C206.505 6.7679 206.65 6.86634 206.824 6.98119C205.491 7.38315 203.666 7.19448 202.188 7.20268C200.711 7.21088 199.175 6.89916 197.582 6.71868C197.292 6.86634 197.031 7.014 196.597 7.21908C195.467 7.0058 194.395 6.80892 193.149 6.57102C192.628 6.59563 191.759 6.62845 190.918 6.65306C190.194 6.66946 189.354 7.0058 188.804 6.74329C188.108 6.41516 187.268 7.02221 186.834 6.64485C186.428 6.74329 186.109 6.88275 185.675 6.91556C185.24 6.94838 184.719 6.86634 184.11 6.82533C183.763 6.96478 183.386 7.11244 182.894 7.31752C181.619 7.18627 180.257 7.08783 178.982 6.92377C177.621 6.7515 177.418 6.73509 176.317 7.06322C175.506 7.30112 175.245 7.27651 174.173 7.02221C173.594 6.88275 172.783 6.7515 172.087 6.7515C169.857 6.7597 167.568 6.68587 165.395 6.91556C164.989 6.95658 164.642 7.05502 164.236 7.12065C163.947 7.16166 163.541 7.23549 163.338 7.20268C161.136 6.90736 159.282 7.30112 157.37 7.41596C157.138 7.09604 156.936 6.77611 156.733 6.47258C157.515 6.43977 158.326 6.40696 159.195 6.38235C157.834 6.005 157.631 6.0132 156.733 6.47258ZM140.393 0.59903C139.814 0.67286 139.263 0.754893 138.626 0.836926C139.988 1.08302 140.017 1.08302 140.393 0.59903C140.538 0.582624 140.77 0.582624 140.915 0.558014C141.088 0.516997 141.204 0.459574 141.291 0.402151C141.32 0.393948 141.088 0.336525 141.059 0.336525C140.857 0.369338 140.625 0.393948 140.509 0.443168C140.393 0.475981 140.422 0.541607 140.393 0.59903ZM114.406 5.14365C115.826 5.40616 117.014 5.62765 118.23 5.84913C118.694 5.57022 119.592 5.60304 120.432 5.60304C121.099 5.60304 121.736 5.57022 121.736 5.35694C121.736 5.22569 121.446 5.06982 121.127 4.96318C120.722 4.82372 120.142 4.80732 119.563 4.92216C119.766 5.04521 119.911 5.13545 120.085 5.23389C118.172 5.47999 116.608 4.78271 114.406 5.14365ZM145.985 6.21008C145.985 6.18547 146.014 6.16086 146.014 6.13625C145.029 6.20188 144.044 6.2675 142.914 6.34954C144.015 6.81712 145.637 6.84173 146.999 6.98119C147.839 7.06322 148.998 6.66946 149.055 6.39876C148.013 6.34133 146.999 6.27571 145.985 6.21008ZM31.0568 1.91976C33.3166 2.19867 36.0978 2.13305 37.2856 1.7803C35.1997 1.60803 33.2297 1.62444 31.0568 1.91976ZM55.4214 3.21588C55.3924 3.2733 55.3635 3.32252 55.3345 3.37995C56.0008 3.40455 56.6961 3.46198 57.3624 3.44557C58.5792 3.41276 59.7091 3.37995 60.8679 3.55221C61.0418 3.57682 61.4474 3.47838 61.8529 3.42096C59.6801 2.75649 57.5073 3.20768 55.4214 3.21588ZM123.822 0.927162C125.995 1.0256 128.196 1.09943 130.514 0.984585C130.166 0.607234 129.442 0.615437 128.602 0.664656C127.009 0.754893 125.415 0.836926 123.822 0.927162ZM52.6402 3.83933C52.6402 3.65065 52.7271 3.5112 52.6112 3.49479C51.5103 3.34713 50.4094 3.20768 49.2506 3.10924C48.9609 3.08463 48.5263 3.19947 48.0918 3.2569C49.1637 3.7655 51.0178 3.59323 52.6402 3.83933ZM87.2315 7.15346C89.0856 7.59644 90.8239 7.30932 92.3883 7.35854C92.7649 7.36674 93.1995 7.2601 93.6051 7.21088C93.5472 7.16166 93.4892 7.12064 93.4602 7.07142C91.5192 7.09604 89.5781 7.12065 87.2315 7.15346ZM65.9379 1.31272C66.4304 1.60803 67.0098 1.68186 67.821 1.64905C69.0377 1.60803 69.9648 1.44397 70.6891 1.0256C69.762 1.06662 68.9508 1.0338 68.6321 1.13224C68.1396 1.28811 67.763 1.31272 67.1257 1.2635C66.8649 1.23889 66.5173 1.2799 65.9379 1.31272ZM99.8338 6.16086C99.9208 5.82452 99.5152 5.61944 98.704 5.49639C98.4143 5.45538 97.8638 5.43897 97.661 5.48819C97.4293 5.54561 97.2844 5.69327 97.4003 5.78351C97.7479 6.09523 98.6171 6.17727 99.8338 6.16086ZM47.5992 1.19787C46.0928 1.08302 43.1377 1.13224 41.6892 1.32092C43.7751 1.39475 45.6292 1.57522 47.5992 1.19787ZM99.3993 3.00259C100.732 3.07642 101.775 3.13385 102.818 3.19947C102.876 3.16666 102.905 3.13385 102.963 3.10924C102.036 2.92876 101.109 2.74009 100.008 2.5268C99.7469 2.72368 99.6021 2.83032 99.3993 3.00259ZM39.1977 6.67767C38.0968 6.56282 37.3435 6.45618 36.5323 6.40696C36.3006 6.39055 35.895 6.5054 35.7212 6.58743C35.6632 6.62024 35.9819 6.7679 36.2137 6.78431C37.0828 6.84994 37.9809 6.94838 39.1977 6.67767ZM134.541 2.5186C133.614 2.30531 132.542 2.24789 131.412 2.29711C130.456 2.33813 130.282 2.48579 130.775 2.79751C131.847 2.33813 133.266 2.58423 134.541 2.5186ZM115.102 1.87874C116.869 2.33813 115.102 2.45297 114.261 2.74009C115.362 2.72368 116.144 2.70728 117.072 2.69087C116.84 2.31352 116.492 2.05101 115.102 1.87874ZM97.2265 2.5186C95.662 2.32992 94.5322 2.38735 93.0257 2.50219C94.5032 2.7565 95.662 2.83853 97.2265 2.5186ZM146.274 1.35373C146.767 1.23889 147.143 1.10763 146.361 0.927162C145.434 0.72208 145.086 0.713876 144.507 0.877942C145.057 1.0256 145.608 1.18146 146.274 1.35373ZM162.817 1.98539C163.86 1.91976 164.989 2.30531 166.061 1.95257C164.468 1.64905 164.207 1.64905 162.817 1.98539ZM69.0667 5.2585C68.4294 5.49639 68.3714 5.94757 68.9219 6.09523C69.0667 6.13625 69.5013 6.16086 69.5882 6.13625C69.791 6.08703 70.0228 5.97218 69.9648 5.91476C69.733 5.69327 69.3854 5.48819 69.0667 5.2585ZM99.0516 4.71708C99.2254 4.74989 99.3993 4.78271 99.6021 4.81552C100.095 4.72528 100.616 4.63505 101.051 4.55302C100.848 4.29051 100.558 4.14285 99.4572 4.18387C99.3124 4.35614 99.1675 4.53661 99.0516 4.71708ZM35.6922 3.42096C34.2726 3.49479 33.2297 3.42916 32.3605 3.66706C33.4035 4.0116 33.4904 4.00339 35.6922 3.42096ZM69.8489 7.12065C69.82 7.17807 69.82 7.23549 69.791 7.30112C70.4573 7.53081 71.2685 7.53901 72.3694 7.37495C72.1666 7.2601 72.0507 7.09604 71.8479 7.09604C71.1816 7.07143 70.5153 7.10424 69.8489 7.12065ZM55.827 2.19867C56.2616 1.92796 56.6382 1.70647 57.0438 1.46858C56.0588 1.34553 55.6242 1.43577 55.2186 1.61624C54.7551 1.82952 54.871 1.99359 55.827 2.19867ZM75.1796 3.20768C74.0787 2.95337 73.1806 2.87134 72.0797 2.97798C72.5143 3.34713 72.6301 3.35534 75.1796 3.20768ZM42.1817 2.17406C43.3405 2.20687 44.1227 2.23969 44.876 2.23969C45.1077 2.23969 45.3105 2.14125 45.5133 2.08383C45.3105 2.0264 45.0498 1.90335 44.876 1.91156C44.0938 1.95257 43.1088 1.84593 42.1817 2.17406ZM125.039 4.5202C124.517 4.7581 124.14 4.92216 123.706 5.12725C124.894 5.2667 125.444 5.11904 126.082 4.92216C125.792 4.80732 125.502 4.70067 125.039 4.5202ZM151.576 4.63505C151.373 4.60223 151.199 4.57763 150.997 4.54481C150.62 4.68427 150.185 4.80732 149.896 4.96318C149.78 5.0206 149.983 5.18467 150.098 5.19287C150.417 5.20928 150.997 5.19287 151.083 5.13545C151.373 4.98779 151.431 4.80732 151.576 4.63505ZM159.717 1.18146C159.05 0.705673 158.587 0.689266 156.907 1.06662C157.979 1.10763 158.761 1.14045 159.717 1.18146ZM67.763 7.28471C66.7201 7.07143 65.6192 7.09604 64.5472 7.15346C64.4314 7.16166 64.4024 7.2683 64.2575 7.41596C65.5902 7.36674 66.6621 7.32573 67.763 7.28471ZM182.372 1.28811C183.56 1.74749 183.56 1.74749 184.603 1.36194C183.965 1.21428 183.357 1.09943 182.372 1.28811ZM110.611 2.53501C112.436 2.85493 112.871 2.80571 113.247 2.32992C112.465 2.38735 111.741 2.44477 110.611 2.53501ZM131.934 4.99599C131.122 4.7663 130.543 4.63505 129.587 4.74169C129.877 5.11904 130.63 5.12725 131.934 4.99599ZM132.803 5.29951C131.963 5.38155 131.644 5.53741 132.05 5.68507C132.281 5.7671 133.006 5.74249 133.962 5.79171C133.382 5.54561 133.064 5.42256 132.803 5.29951ZM76.3094 5.91476C76.744 6.13625 77.2365 6.24289 78.0187 6.11984C78.1926 6.09523 78.2795 5.93117 78.1636 5.89015C77.5842 5.68507 76.9758 5.7507 76.3094 5.91476ZM50.1197 1.64905C49.1057 1.46038 48.4394 1.46038 47.5992 1.73108C48.5263 1.83773 49.2216 1.89515 50.1197 1.64905ZM99.8338 1.55882C98.8199 1.5096 98.1535 1.41116 97.4872 1.56702C98.1535 1.91156 98.1535 1.91156 99.8338 1.55882ZM92.3014 6.15266C93.3154 6.13625 93.8658 6.07883 93.8658 5.87374C93.8658 5.71788 93.5471 5.59483 92.678 5.64405C92.5621 5.78351 92.4463 5.93117 92.3014 6.15266ZM141.958 6.53001C141.291 6.38235 141.002 6.05422 139.408 6.14445C140.277 6.39055 140.915 6.54641 141.958 6.53001ZM109.8 1.0338C108.931 1.0256 108.293 1.04201 108.062 1.25529C108.004 1.29631 108.38 1.42756 108.612 1.43577C109.394 1.45217 109.771 1.32912 109.8 1.0338ZM40.5014 8.67107C41.2836 8.76951 42.0948 8.90076 43.0798 8.72849C42.1817 8.42497 41.3415 8.57263 40.5014 8.67107ZM137.004 6.47258C138.104 6.66946 138.104 6.66946 139.176 6.55462C138.684 6.21008 137.931 6.33313 137.004 6.47258ZM312.22 8.65466C313.002 8.58903 313.437 8.55622 313.871 8.52341C313.784 8.44137 313.755 8.31012 313.552 8.28551C312.828 8.18707 312.48 8.30192 312.22 8.65466ZM113.479 5.23389C112.755 4.78271 112.32 4.74989 111.075 5.0206C111.828 5.08623 112.523 5.15186 113.479 5.23389ZM86.0437 3.05181C85.0876 2.64165 85.0297 2.64165 84.1895 2.98619C84.8559 3.0108 85.4353 3.0272 86.0437 3.05181ZM115.913 6.62845C115.913 6.66946 115.884 6.71048 115.884 6.7515C117.535 7.02221 117.535 7.02221 117.912 6.66946C117.216 6.66126 116.579 6.64485 115.913 6.62845ZM75.8169 1.30451C75.0637 1.24709 74.6291 1.32092 74.6291 1.54241C74.6291 1.59163 74.9768 1.68186 75.1506 1.67366C75.9039 1.63264 76.1356 1.5096 75.8169 1.30451ZM103.455 2.68267C104.44 3.2569 104.44 3.2569 105.802 3.12564C105.107 2.99439 104.411 2.86314 103.455 2.68267ZM84.7979 7.09604C84.769 7.15346 84.711 7.21088 84.682 7.2601C85.2615 7.39135 85.8409 7.46518 86.9707 7.21908C85.9857 7.16986 85.4063 7.13705 84.7979 7.09604ZM211.227 6.31672C213.168 6.28391 213.168 6.27571 213.197 5.83273C212.531 6.005 211.951 6.14445 211.227 6.31672ZM49.9169 6.5218C50.3225 6.70228 50.7861 6.7515 51.2786 6.62845C51.3944 6.59563 51.4234 6.46438 51.3365 6.43977C50.844 6.33313 50.3805 6.34954 49.9169 6.5218ZM86.1885 6.16906C86.8838 5.93117 86.8549 5.77531 85.9278 5.74249C85.8409 5.74249 85.725 5.78351 85.4643 5.82453C85.696 5.93937 85.9568 6.05422 86.1885 6.16906ZM113.798 1.74749C112.929 1.32092 112.929 1.32092 111.828 1.48499C112.581 1.58342 113.189 1.66546 113.798 1.74749ZM124.343 2.38735C124.459 2.82212 124.459 2.82212 125.966 2.81392C125.386 2.66626 124.952 2.55141 124.343 2.38735ZM29.2606 1.61624C29.0578 1.64085 28.8261 1.65725 28.6233 1.68186C28.7392 1.7803 28.8551 1.88695 28.9709 1.99359C29.1737 1.96898 29.5793 1.93617 29.5793 1.91976C29.5214 1.81312 29.3765 1.71468 29.2606 1.61624ZM88.4772 2.90415C88.4483 2.96158 88.4193 3.019 88.3614 3.07642C88.8249 3.23229 89.2884 3.24049 90.0706 2.96978C89.3464 2.93697 88.9118 2.92056 88.4772 2.90415ZM63.7071 3.50299C63.823 3.54401 63.9099 3.57682 64.0258 3.61784C64.4024 3.5276 64.808 3.44557 65.3874 3.31432C64.1706 3.17486 63.8519 3.30612 63.7071 3.50299ZM44.7022 3.78191C45.89 3.97058 45.89 3.97058 46.6432 3.72448C45.89 3.74089 45.3105 3.7655 44.7022 3.78191ZM86.1885 4.95498C86.1885 5.0206 86.1596 5.08623 86.1596 5.14365C86.5362 5.14365 86.9128 5.14365 87.3184 5.13545C87.3474 5.13545 87.3763 4.99599 87.3474 4.99599C86.9707 4.97138 86.5652 4.96318 86.1885 4.95498ZM106.497 5.12725C106.874 5.21748 107.135 5.28311 107.395 5.34873C107.54 5.29951 107.859 5.21748 107.801 5.20108C107.627 5.11904 107.366 5.04521 107.106 4.97959C107.077 4.97138 106.787 5.05342 106.497 5.12725ZM110.09 5.7671C110.09 5.82452 110.119 5.89015 110.119 5.94757C110.495 5.93937 110.872 5.93937 111.248 5.93117C111.248 5.86554 111.219 5.80812 111.219 5.74249C110.843 5.7507 110.466 5.7589 110.09 5.7671ZM168.958 0.779503C168.785 1.06662 169.103 1.14045 169.886 1.07482C169.972 1.06662 170.03 1.0174 170.175 0.959975C169.799 0.910755 169.422 0.853332 168.958 0.779503ZM153.778 1.14045C154.27 1.11584 154.792 1.08302 155.284 1.05841C154.444 0.918959 154.444 0.918958 153.778 1.14045ZM80.0757 6.42337C79.9308 6.45618 79.8149 6.48899 79.6701 6.5218C80.0467 6.66126 80.4233 6.80072 80.7999 6.94838C80.9448 6.91556 81.0897 6.88275 81.2345 6.84994C80.8579 6.71048 80.4813 6.57102 80.0757 6.42337ZM89.4333 6.5218C90.0417 6.74329 90.0417 6.74329 91.5482 6.65306C90.6501 6.60384 90.1286 6.57102 89.4333 6.5218ZM104.498 5.06162C103.716 5.11084 103.281 5.13545 102.847 5.16006C103.397 5.32412 103.861 5.35694 104.498 5.06162ZM40.3855 5.56202C39.5743 5.64405 39.1977 5.71788 39.5453 5.89015C39.6033 5.92296 40.1827 5.92296 40.1827 5.91476C40.2986 5.81632 40.3275 5.70968 40.3855 5.56202ZM58.9848 5.7507C58.9848 5.79992 58.9559 5.84913 58.9559 5.89835C59.3904 6.005 59.796 6.05422 60.4044 5.79171C59.767 5.7671 59.3904 5.7589 58.9848 5.7507ZM98.3273 7.03861C97.8928 6.98939 97.661 6.94017 97.4582 6.95658C97.2554 6.96478 97.0526 7.03041 96.8788 7.07142C97.1106 7.11244 97.3423 7.18627 97.6031 7.19447C97.7479 7.20268 97.9507 7.12065 98.3273 7.03861ZM77.8449 1.32912C78.0187 1.2799 78.1636 1.23889 78.3374 1.18967C78.0477 1.13224 77.758 1.07482 77.4683 1.0256C77.4393 1.0256 77.2365 1.08302 77.2365 1.09123C77.4393 1.17326 77.6421 1.25529 77.8449 1.32912ZM179.272 1.40295C179.62 1.29631 179.823 1.25529 179.91 1.19787C179.938 1.18146 179.62 1.09123 179.62 1.09123C179.388 1.13224 179.156 1.17326 179.011 1.23068C178.953 1.25529 179.127 1.32092 179.272 1.40295ZM209.75 6.30852C209.75 6.2593 209.721 6.21008 209.721 6.16086C209.315 6.16906 208.88 6.17727 208.475 6.17727C208.475 6.21008 208.475 6.2511 208.475 6.28391C208.88 6.29211 209.315 6.30032 209.75 6.30852ZM87.6081 4.60223C87.3184 4.33153 87.3184 4.33153 86.4782 4.41356C86.9418 4.48739 87.2605 4.54481 87.6081 4.60223ZM170.726 4.93857C171.537 5.08623 172.058 5.08623 172.058 4.74989C171.508 4.83193 171.131 4.88115 170.726 4.93857ZM164.207 5.52921C163.193 5.40616 163.193 5.40616 162.469 5.52921C163.106 5.52921 163.657 5.52921 164.207 5.52921ZM90.9398 1.18146C92.0117 1.35373 92.0117 1.35373 92.8229 1.24709C92.2435 1.22248 91.722 1.20607 90.9398 1.18146ZM229.218 1.96898C229.131 2.0182 229.044 2.06742 228.957 2.11664C229.334 2.15766 229.711 2.19867 230.116 2.23969C230.145 2.23969 230.29 2.15766 230.261 2.14945C229.913 2.09203 229.566 2.0264 229.218 1.96898ZM166.322 6.31672C166.322 6.2675 166.351 6.21828 166.351 6.16906C166.032 6.16906 165.714 6.16086 165.424 6.17727C165.366 6.17727 165.366 6.2675 165.366 6.32493C165.685 6.31672 166.003 6.31672 166.322 6.31672ZM145.202 4.83193C145.173 4.87294 145.115 4.91396 145.086 4.95498C145.492 5.04521 145.898 5.13545 146.593 4.89755C145.956 4.86474 145.579 4.84833 145.202 4.83193ZM0.811186 3.63425C0.898099 3.64245 0.985012 3.65886 1.07192 3.66706C1.24575 3.61784 1.50649 3.58503 1.56443 3.5276C1.62237 3.46198 1.47752 3.37995 1.44855 3.31432C1.33266 3.31432 1.21678 3.31432 1.1009 3.31432C0.985012 3.42096 0.898099 3.5276 0.811186 3.63425ZM78.8009 3.24869C78.8009 3.19947 78.772 3.15846 78.772 3.10924C78.4243 3.12564 78.0767 3.14205 77.729 3.15846C77.729 3.19127 77.758 3.21588 77.758 3.24869C78.1056 3.24869 78.4533 3.24869 78.8009 3.24869ZM121.562 2.29711C121.243 2.37914 120.983 2.41196 120.925 2.46938C120.896 2.5104 121.156 2.62524 121.243 2.61704C121.475 2.61704 121.765 2.56782 121.881 2.5104C121.939 2.47758 121.736 2.40375 121.562 2.29711ZM82.2775 1.19787C82.0457 1.2717 81.8139 1.31272 81.8429 1.33733C81.9298 1.39475 82.1036 1.44397 82.2485 1.49319C82.3933 1.46038 82.6251 1.42756 82.6251 1.39475C82.5672 1.33733 82.4223 1.2799 82.2775 1.19787ZM188.89 1.53421C189.006 1.50139 189.151 1.46858 189.267 1.42756C189.006 1.37014 188.746 1.31272 188.456 1.2717C188.427 1.2635 188.282 1.31272 188.195 1.33733C188.427 1.40295 188.659 1.46858 188.89 1.53421ZM197.263 1.32092C197.871 1.526 197.871 1.526 198.799 1.41936C198.248 1.37834 197.843 1.35373 197.263 1.32092ZM220.498 1.81312C220.179 1.74749 220.005 1.69827 219.802 1.66546C219.745 1.65725 219.455 1.73108 219.484 1.75569C219.513 1.79671 219.687 1.85413 219.831 1.87054C219.976 1.88695 220.15 1.84593 220.498 1.81312ZM157.805 2.21508C157.602 2.14945 157.428 2.10023 157.283 2.05101C157.167 2.08383 156.907 2.12484 156.936 2.14945C156.993 2.20687 157.167 2.2643 157.312 2.31352C157.341 2.31352 157.573 2.25609 157.805 2.21508ZM150.04 2.33813C150.069 2.37914 150.098 2.42836 150.127 2.46938C150.562 2.44477 150.997 2.42016 151.402 2.40375C151.373 2.36274 151.344 2.32992 151.344 2.28891C150.91 2.30531 150.475 2.32172 150.04 2.33813ZM83.3494 4.24129C83.3204 4.29051 83.2914 4.33153 83.2625 4.38075C83.5522 4.39715 83.8419 4.41356 84.1316 4.42176C84.1606 4.37254 84.1895 4.32332 84.2185 4.2741C83.9288 4.2659 83.6391 4.2577 83.3494 4.24129ZM203.115 5.5128C203.144 5.54561 203.144 5.57843 203.173 5.61124C203.492 5.59483 203.811 5.57843 204.129 5.56202C204.1 5.52921 204.071 5.49639 204.071 5.46358C203.724 5.47999 203.434 5.49639 203.115 5.5128ZM163.106 6.09523C162.875 6.18547 162.672 6.22649 162.643 6.28391C162.614 6.31672 162.875 6.39055 162.99 6.39055C163.193 6.38235 163.367 6.33313 163.57 6.30032C163.425 6.2511 163.309 6.19367 163.106 6.09523ZM130.92 6.64485C130.862 6.61204 130.804 6.57923 130.775 6.54641C130.485 6.57923 130.224 6.62024 129.935 6.65306C129.993 6.68587 130.079 6.74329 130.079 6.74329C130.369 6.71048 130.63 6.67767 130.92 6.64485ZM289.709 8.11324C289.912 8.03941 290.144 7.98199 290.086 7.96558C289.97 7.90816 289.796 7.85894 289.593 7.83433C289.536 7.82613 289.217 7.90816 289.246 7.93277C289.333 7.99019 289.507 8.03941 289.709 8.11324ZM298.256 8.30192C298.372 8.2609 298.488 8.21989 298.603 8.17887C298.343 8.16246 298.082 8.12145 297.85 8.12145C297.676 8.12145 297.503 8.18707 297.329 8.21989C297.503 8.26911 297.647 8.32653 297.85 8.35934C297.908 8.37575 298.111 8.32653 298.256 8.30192ZM319.752 9.04842C319.607 9.07303 319.462 9.09764 319.318 9.11404C319.52 9.20428 319.723 9.30272 319.897 9.39296C319.984 9.37655 320.1 9.36835 320.187 9.35194C320.042 9.2535 319.897 9.15506 319.752 9.04842ZM162.469 1.34553C162.208 1.28811 162.063 1.23889 161.977 1.24709C161.803 1.25529 161.629 1.28811 161.542 1.32912C161.484 1.35373 161.687 1.44397 161.716 1.43577C161.919 1.41936 162.121 1.38655 162.469 1.34553ZM131.557 1.7721C131.615 1.73929 131.673 1.71468 131.702 1.68186C131.412 1.64085 131.151 1.60803 130.862 1.56702C130.804 1.59983 130.717 1.64905 130.717 1.65725C131.007 1.69827 131.296 1.73929 131.557 1.7721ZM136.048 1.7639C136.048 1.80491 136.048 1.84593 136.048 1.88695C136.337 1.87054 136.656 1.84593 136.946 1.82952C136.946 1.80491 136.917 1.78851 136.917 1.7639C136.627 1.7639 136.337 1.7639 136.048 1.7639ZM71.9928 2.14125C71.8769 2.17406 71.732 2.20687 71.6161 2.23969C71.8769 2.29711 72.1376 2.36274 72.3694 2.42016C72.4563 2.39555 72.5432 2.37094 72.6301 2.34633C72.3984 2.2725 72.1956 2.20687 71.9928 2.14125ZM136.685 2.47758C136.801 2.5104 136.888 2.55141 137.004 2.58423C137.235 2.5186 137.467 2.46118 137.67 2.39555C137.583 2.37094 137.525 2.34633 137.438 2.32172C137.177 2.37094 136.917 2.42836 136.685 2.47758ZM35.1128 2.67446C35.1417 2.72368 35.1707 2.7729 35.1707 2.82212C35.4604 2.80571 35.7212 2.78931 36.0109 2.78111C35.9819 2.74829 35.9529 2.68267 35.924 2.68267C35.6632 2.66626 35.3735 2.67446 35.1128 2.67446ZM143.29 5.06162C143.464 5.0042 143.638 4.96318 143.638 4.93037C143.638 4.89755 143.435 4.86474 143.319 4.83193C143.203 4.86474 143.001 4.89755 142.972 4.93037C142.972 4.96318 143.145 5.0042 143.29 5.06162ZM105.425 6.11164C105.338 6.13625 105.28 6.15266 105.193 6.17727C105.425 6.24289 105.686 6.30852 105.918 6.37415C106.005 6.34954 106.063 6.32493 106.15 6.30032C105.918 6.24289 105.686 6.17727 105.425 6.11164ZM44.6732 6.30032C44.5283 6.38235 44.3835 6.43977 44.3835 6.49719C44.3835 6.53001 44.6152 6.56282 44.7311 6.59563C44.876 6.54641 45.0498 6.49719 45.1077 6.44797C45.1367 6.41516 44.9049 6.36594 44.6732 6.30032ZM230.406 6.60384C230.58 6.5136 230.753 6.44798 230.725 6.43157C230.609 6.38235 230.406 6.33313 230.203 6.31672C230.116 6.30852 229.826 6.39055 229.855 6.41516C229.884 6.47258 230.087 6.5054 230.406 6.60384ZM201 6.67767C201 6.71048 200.971 6.74329 200.971 6.77611C201.319 6.77611 201.667 6.77611 202.014 6.77611C202.014 6.7515 202.014 6.72689 202.014 6.70228C201.667 6.69407 201.319 6.68587 201 6.67767ZM121.417 6.80072C121.33 6.7597 121.214 6.71048 121.214 6.71048C121.07 6.72689 120.925 6.7597 120.78 6.78431C120.838 6.80892 120.925 6.85814 120.983 6.85814C121.127 6.84994 121.272 6.81712 121.417 6.80072ZM318.738 7.94918C318.738 7.98199 318.738 8.0148 318.709 8.04762C318.999 8.04762 319.289 8.04762 319.549 8.04762C319.549 8.02301 319.549 7.9984 319.549 7.97379C319.289 7.96558 319.028 7.95738 318.738 7.94918ZM219.426 6.42337C219.6 6.35774 219.745 6.32493 219.802 6.28391C219.831 6.2675 219.658 6.20188 219.6 6.21008C219.455 6.21828 219.223 6.24289 219.165 6.27571C219.165 6.30032 219.31 6.35774 219.426 6.42337ZM188.456 6.20188C188.282 6.17727 188.166 6.15266 187.992 6.14445C187.934 6.14445 187.848 6.19367 187.761 6.21828C187.905 6.24289 188.021 6.27571 188.166 6.29211C188.224 6.29211 188.34 6.24289 188.456 6.20188ZM181.097 6.32493C181.3 6.2675 181.445 6.23469 181.503 6.18547C181.532 6.16906 181.358 6.10344 181.3 6.10344C181.126 6.11164 180.895 6.12805 180.866 6.16086C180.837 6.19367 181.01 6.2511 181.097 6.32493ZM131.557 6.20188C131.354 6.13625 131.267 6.09523 131.122 6.07062C131.065 6.06242 130.804 6.10344 130.804 6.11164C130.833 6.16086 130.862 6.21828 131.007 6.2511C131.065 6.2593 131.296 6.22649 131.557 6.20188ZM317.464 5.71788C317.174 5.70148 316.971 5.67687 316.855 5.69327C316.71 5.70968 316.623 5.7671 316.507 5.80812C316.681 5.82453 316.855 5.86554 316.971 5.84913C317.145 5.84093 317.232 5.78351 317.464 5.71788ZM137.235 5.7671C137.293 5.71788 137.38 5.66866 137.38 5.61944C137.38 5.60304 137.206 5.58663 137.119 5.57022C137.061 5.61124 136.946 5.66046 136.917 5.70148C136.888 5.71788 137.061 5.74249 137.235 5.7671ZM74.2235 5.07803C74.1656 5.02881 74.1366 4.99599 74.0787 4.96318C73.9338 4.98779 73.76 5.0042 73.6151 5.02881C73.5862 5.03701 73.6731 5.08623 73.7021 5.11904C73.8759 5.11084 74.0497 5.09443 74.2235 5.07803ZM137.728 4.83193C137.641 4.78271 137.525 4.72528 137.525 4.72528C137.38 4.74169 137.235 4.7663 137.09 4.79091C137.148 4.82372 137.206 4.87294 137.264 4.87294C137.409 4.88115 137.554 4.84833 137.728 4.83193ZM172.899 3.92136C172.841 3.96238 172.783 3.99519 172.725 4.03621C172.985 4.06082 173.217 4.08543 173.478 4.11004C173.507 4.08543 173.565 4.06082 173.594 4.03621C173.362 4.00339 173.13 3.96238 172.899 3.92136ZM32.4764 2.72368C32.2736 2.67446 32.1288 2.62524 32.0129 2.62524C31.897 2.62524 31.7811 2.68267 31.6652 2.71548C31.7811 2.74829 31.897 2.80572 32.0129 2.80572C32.1288 2.81392 32.2736 2.7647 32.4764 2.72368ZM145.144 2.58423C144.913 2.53501 144.768 2.50219 144.623 2.48579C144.565 2.47758 144.333 2.5268 144.362 2.54321C144.42 2.58423 144.478 2.64985 144.623 2.66626C144.71 2.67446 144.884 2.62524 145.144 2.58423ZM60.7231 2.32992C60.9259 2.38735 61.0418 2.42836 61.1866 2.44477C61.2446 2.45297 61.4763 2.40375 61.4763 2.38735C61.4474 2.33813 61.3604 2.29711 61.2735 2.25609C61.1287 2.2807 60.9838 2.29711 60.7231 2.32992ZM145 1.75569C144.71 1.69007 144.536 1.64905 144.362 1.61624C144.333 1.61624 144.072 1.69007 144.101 1.71468C144.13 1.75569 144.275 1.81312 144.42 1.82132C144.507 1.84593 144.681 1.79671 145 1.75569ZM176.636 1.12404C176.433 1.17326 176.288 1.20607 176.201 1.23889C176.172 1.25529 176.288 1.32092 176.346 1.32092C176.52 1.32092 176.665 1.29631 176.839 1.2799C176.752 1.23889 176.723 1.18967 176.636 1.12404ZM166.815 1.08302C166.612 1.04201 166.467 0.992788 166.322 0.992788C166.177 1.00099 166.032 1.05021 165.917 1.08302C166.032 1.11584 166.148 1.17326 166.293 1.17326C166.409 1.17326 166.583 1.12404 166.815 1.08302ZM119.071 0.959975C118.926 0.910755 118.81 0.869739 118.694 0.836926C118.578 0.869739 118.346 0.894349 118.317 0.935365C118.288 0.968178 118.462 1.0174 118.549 1.05841C118.752 1.0256 118.868 0.992788 119.071 0.959975ZM25.4075 5.80812C25.3496 5.78351 25.3206 5.74249 25.2337 5.73429C25.1468 5.72609 25.0309 5.7507 24.944 5.7671C25.0019 5.79171 25.0309 5.83273 25.0888 5.84093C25.2047 5.84913 25.2916 5.82453 25.4075 5.80812ZM96.9367 4.45458C96.9947 4.47919 97.0526 4.5038 97.1106 4.5202C97.3134 4.47919 97.5162 4.42997 97.719 4.38895C97.632 4.36434 97.4872 4.32332 97.4872 4.32332C97.2554 4.36434 97.1106 4.40536 96.9367 4.45458ZM137.786 4.08543C137.728 4.05261 137.699 4.00339 137.641 4.00339C137.525 4.00339 137.409 4.028 137.293 4.03621C137.351 4.07722 137.438 4.11004 137.496 4.15105C137.583 4.12644 137.67 4.11004 137.786 4.08543ZM169.944 3.32252C170.117 3.30612 170.233 3.29791 170.349 3.28151C170.262 3.24049 170.233 3.19127 170.117 3.15846C170.088 3.15025 169.799 3.18307 169.828 3.19127C169.828 3.23229 169.886 3.2733 169.944 3.32252ZM73.0068 1.84593C72.8329 1.83773 72.6591 1.82132 72.5143 1.81312C72.5143 1.84593 72.4563 1.88695 72.5143 1.90335C72.5722 1.92796 72.746 1.94437 72.8329 1.93617C72.8909 1.93617 72.9488 1.89515 73.0068 1.84593ZM150.968 1.64905C150.794 1.63264 150.62 1.61624 150.446 1.61624C150.417 1.61624 150.301 1.69827 150.33 1.69827C150.475 1.72288 150.649 1.73929 150.794 1.7639C150.823 1.73108 150.881 1.69827 150.968 1.64905ZM308.54 8.10504C308.483 8.12965 308.425 8.15426 308.367 8.17887C308.454 8.19528 308.569 8.21989 308.656 8.21168C308.714 8.20348 308.772 8.16246 308.83 8.13785C308.743 8.12965 308.656 8.11324 308.54 8.10504ZM58.9559 6.36594C58.8689 6.34954 58.7531 6.32493 58.6661 6.32493C58.5792 6.33313 58.4923 6.36594 58.4054 6.39055C58.5213 6.40696 58.6372 6.43977 58.782 6.44797C58.84 6.44797 58.8979 6.39876 58.9559 6.36594ZM312.799 6.0214C312.683 5.98859 312.567 5.93937 312.538 5.93937C312.394 5.96398 312.278 5.99679 312.133 6.0214C312.22 6.04601 312.307 6.08703 312.365 6.08703C312.509 6.07883 312.654 6.04601 312.799 6.0214Z" fill="#FF9E44"/>
</svg>
